%TF.GenerationSoftware,KiCad,Pcbnew,8.0.0*%
%TF.CreationDate,2025-04-28T00:15:23+02:00*%
%TF.ProjectId,LinearSaturn,4c696e65-6172-4536-9174-75726e2e6b69,rev?*%
%TF.SameCoordinates,Original*%
%TF.FileFunction,Copper,L2,Bot*%
%TF.FilePolarity,Positive*%
%FSLAX46Y46*%
G04 Gerber Fmt 4.6, Leading zero omitted, Abs format (unit mm)*
G04 Created by KiCad (PCBNEW 8.0.0) date 2025-04-28 00:15:23*
%MOMM*%
%LPD*%
G01*
G04 APERTURE LIST*
%TA.AperFunction,ComponentPad*%
%ADD10R,1.600000X1.600000*%
%TD*%
%TA.AperFunction,ComponentPad*%
%ADD11C,1.600000*%
%TD*%
%TA.AperFunction,ComponentPad*%
%ADD12O,2.000000X1.905000*%
%TD*%
%TA.AperFunction,ComponentPad*%
%ADD13C,2.600000*%
%TD*%
%TA.AperFunction,ComponentPad*%
%ADD14O,4.000000X4.000000*%
%TD*%
%TA.AperFunction,ComponentPad*%
%ADD15R,2.000000X1.905000*%
%TD*%
%TA.AperFunction,ComponentPad*%
%ADD16C,1.200000*%
%TD*%
%TA.AperFunction,ComponentPad*%
%ADD17R,2.200000X2.200000*%
%TD*%
%TA.AperFunction,ComponentPad*%
%ADD18C,2.200000*%
%TD*%
%TA.AperFunction,ViaPad*%
%ADD19C,0.800000*%
%TD*%
%TA.AperFunction,Conductor*%
%ADD20C,1.000000*%
%TD*%
%TA.AperFunction,Conductor*%
%ADD21C,2.000000*%
%TD*%
%TA.AperFunction,Conductor*%
%ADD22C,0.250000*%
%TD*%
%TA.AperFunction,Conductor*%
%ADD23C,1.250000*%
%TD*%
G04 APERTURE END LIST*
D10*
%TO.P,25v 220uF,1*%
%TO.N,3.3v*%
X146050000Y-164338000D03*
D11*
%TO.P,25v 220uF,GND*%
%TO.N,GND*%
X142550000Y-164338000D03*
%TD*%
D12*
%TO.P,,3*%
%TO.N,N/C*%
X142564000Y-84540000D03*
%TD*%
D13*
%TO.P,,*%
%TO.N,*%
X154544000Y-146972000D03*
%TD*%
D14*
%TO.P,,2*%
%TO.N,N/C*%
X128000000Y-32500000D03*
%TD*%
D15*
%TO.P,,1*%
%TO.N,5v*%
X142564000Y-82000000D03*
%TD*%
D14*
%TO.P,,2*%
%TO.N,N/C*%
X144500000Y-32500000D03*
%TD*%
D16*
%TO.P,50v 0.1uF,*%
%TO.N,GND*%
X144050000Y-150622000D03*
%TO.P,50v 0.1uF,1*%
%TO.N,5v*%
X146050000Y-150622000D03*
%TD*%
D13*
%TO.P,,*%
%TO.N,GND*%
X154544000Y-159164000D03*
%TD*%
D11*
%TO.P,35v 100uF,*%
%TO.N,GND*%
X132810379Y-143256000D03*
D10*
%TO.P,35v 100uF,1*%
%TO.N,N/C*%
X135310379Y-143256000D03*
%TD*%
D13*
%TO.P,,*%
%TO.N,5v*%
X154544000Y-151036000D03*
%TD*%
%TO.P,,*%
%TO.N,GND*%
X154544000Y-163228000D03*
%TD*%
D11*
%TO.P,25v 220uF,*%
%TO.N,GND*%
X142424651Y-143002000D03*
D10*
%TO.P,25v 220uF,5v*%
%TO.N,5v*%
X145924651Y-143002000D03*
%TD*%
D16*
%TO.P,50v 0.1uF,*%
%TO.N,GND*%
X144000000Y-156972000D03*
%TO.P,50v 0.1uF,1*%
%TO.N,3.3v*%
X146000000Y-156972000D03*
%TD*%
D13*
%TO.P,,*%
%TO.N,3.3v*%
X154544000Y-155100000D03*
%TD*%
%TO.P,,1*%
%TO.N,N/C*%
X119452000Y-43434000D03*
%TD*%
D12*
%TO.P,,GND*%
%TO.N,GND*%
X142564000Y-79460000D03*
%TD*%
D17*
%TO.P,REF\u002A\u002A,1*%
%TO.N,N/C*%
X136500000Y-42000000D03*
D18*
%TO.P,REF\u002A\u002A,2*%
X140350000Y-42000000D03*
%TO.P,REF\u002A\u002A,3*%
X144200000Y-42000000D03*
%TO.P,REF\u002A\u002A,4*%
%TO.N,GND*%
X148050000Y-42000000D03*
%TD*%
D13*
%TO.P,,1*%
%TO.N,N/C*%
X127030000Y-43410000D03*
%TD*%
D19*
%TO.N,*%
X143764000Y-171958000D03*
%TO.N,GND*%
X158750000Y-41402000D03*
X160528000Y-43180000D03*
X140395000Y-175260000D03*
X156972000Y-43180000D03*
X160528000Y-41402000D03*
X156972000Y-36322000D03*
X158750000Y-43180000D03*
X141411000Y-175260000D03*
X139379000Y-175260000D03*
X140395000Y-173990000D03*
X142427000Y-175260000D03*
X143443000Y-173990000D03*
X142427000Y-173990000D03*
X160528000Y-36322000D03*
X156972000Y-39878000D03*
X158750000Y-36322000D03*
X160528000Y-38100000D03*
X141411000Y-173990000D03*
X139379000Y-173990000D03*
X156972000Y-38100000D03*
X156972000Y-41402000D03*
X160528000Y-39878000D03*
X143443000Y-175260000D03*
X158750000Y-38100000D03*
X158750000Y-39878000D03*
%TO.N,3.3v*%
X143764000Y-177038000D03*
%TD*%
D20*
%TO.N,*%
X135310379Y-143223447D02*
X135310379Y-143256000D01*
D21*
X132274466Y-138116466D02*
X133845913Y-139687913D01*
D22*
X135128000Y-143256000D02*
X135310379Y-143256000D01*
D21*
X120916466Y-49796466D02*
X129345534Y-58225534D01*
X119452000Y-43434000D02*
X119452000Y-46260932D01*
X130810000Y-61761068D02*
X130810000Y-134580932D01*
X135310379Y-143256000D02*
X142564000Y-136002379D01*
X135310379Y-143256000D02*
X135310379Y-159362243D01*
X138239311Y-166433311D02*
X143764000Y-171958000D01*
X142564000Y-136002379D02*
X142564000Y-84540000D01*
X133845913Y-139687913D02*
G75*
G02*
X135310352Y-143223447I-3535513J-3535487D01*
G01*
X138239311Y-166433311D02*
G75*
G02*
X135310355Y-159362243I7071089J7071111D01*
G01*
X132274467Y-138116465D02*
G75*
G02*
X130809978Y-134580932I3535533J3535565D01*
G01*
X120916467Y-49796465D02*
G75*
G02*
X119451978Y-46260932I3535533J3535565D01*
G01*
X129345533Y-58225535D02*
G75*
G02*
X130810022Y-61761068I-3535533J-3535565D01*
G01*
D20*
%TO.N,GND*%
X132810379Y-143256000D02*
X132810379Y-143009447D01*
D23*
%TO.N,3.3v*%
X154544000Y-155100000D02*
X147922000Y-155100000D01*
X143764000Y-177038000D02*
X146050000Y-174752000D01*
X147922000Y-155100000D02*
X146050000Y-156972000D01*
X146050000Y-156972000D02*
X146050000Y-164338000D01*
X146050000Y-174752000D02*
X146050000Y-165437511D01*
D21*
%TO.N,5v*%
X149498000Y-143002000D02*
X146558000Y-143002000D01*
D23*
X144272000Y-144654651D02*
X145924651Y-143002000D01*
X146478564Y-151036000D02*
X144272000Y-148829436D01*
D21*
X155436000Y-82000000D02*
X155544000Y-82108000D01*
D23*
X154544000Y-151036000D02*
X146478564Y-151036000D01*
D21*
X155544000Y-82108000D02*
X155500000Y-82152000D01*
D23*
X144272000Y-148844000D02*
X144272000Y-144654651D01*
D22*
X145780000Y-150622000D02*
X145542000Y-150622000D01*
D21*
X155500000Y-137000000D02*
X149498000Y-143002000D01*
X155500000Y-82152000D02*
X155500000Y-137000000D01*
D23*
X144272000Y-148829436D02*
X144272000Y-144654651D01*
D21*
X155500000Y-137000000D02*
X154750000Y-137750000D01*
D23*
X151732000Y-151036000D02*
X146464000Y-151036000D01*
X154544000Y-151036000D02*
X151732000Y-151036000D01*
X146050000Y-150622000D02*
X144272000Y-148844000D01*
D21*
X142564000Y-82000000D02*
X155436000Y-82000000D01*
%TD*%
%TA.AperFunction,Conductor*%
%TO.N,GND*%
G36*
X162434084Y-28409917D02*
G01*
X162502190Y-28429964D01*
X162548648Y-28483650D01*
X162560000Y-28535917D01*
X162560000Y-180464000D01*
X162539998Y-180532121D01*
X162486342Y-180578614D01*
X162434000Y-180590000D01*
X152400000Y-180590000D01*
X152400000Y-195454000D01*
X152379998Y-195522121D01*
X152326342Y-195568614D01*
X152274000Y-195580000D01*
X116975989Y-195580000D01*
X116907868Y-195559998D01*
X116861375Y-195506342D01*
X116849989Y-195454011D01*
X116840011Y-85705508D01*
X116860007Y-85637386D01*
X116913658Y-85590888D01*
X116965503Y-85579498D01*
X121850000Y-85560000D01*
X121830000Y-78590000D01*
X121829999Y-78589999D01*
X116965747Y-78580251D01*
X116897667Y-78560112D01*
X116851282Y-78506363D01*
X116840000Y-78454251D01*
X116840000Y-43434000D01*
X117638429Y-43434000D01*
X117658685Y-43704302D01*
X117719001Y-43968560D01*
X117719002Y-43968562D01*
X117818025Y-44220872D01*
X117818027Y-44220876D01*
X117926619Y-44408962D01*
X117943500Y-44471962D01*
X117943500Y-46137734D01*
X117943499Y-46137764D01*
X117943499Y-46208729D01*
X117943478Y-46208800D01*
X117943478Y-46493386D01*
X117960063Y-46725253D01*
X117976002Y-46948083D01*
X117976649Y-46957121D01*
X117976651Y-46957145D01*
X118042809Y-47417259D01*
X118042813Y-47417284D01*
X118042816Y-47417297D01*
X118141637Y-47871557D01*
X118141641Y-47871572D01*
X118272624Y-48317647D01*
X118435090Y-48753229D01*
X118628212Y-49176100D01*
X118628224Y-49176122D01*
X118851026Y-49584150D01*
X118851027Y-49584153D01*
X119032498Y-49866523D01*
X119102374Y-49975251D01*
X119380983Y-50347424D01*
X119380986Y-50347427D01*
X119685430Y-50698773D01*
X119794826Y-50808167D01*
X128276666Y-59290007D01*
X128280931Y-59294486D01*
X128504815Y-59541504D01*
X128512658Y-59551061D01*
X128709403Y-59816336D01*
X128716259Y-59826596D01*
X128886067Y-60109901D01*
X128891885Y-60120786D01*
X129033090Y-60419336D01*
X129037822Y-60430759D01*
X129149085Y-60741713D01*
X129152675Y-60753546D01*
X129232925Y-61073916D01*
X129235337Y-61086043D01*
X129283798Y-61412727D01*
X129285010Y-61425032D01*
X129301348Y-61757535D01*
X129301500Y-61763719D01*
X129301500Y-134457734D01*
X129301499Y-134457764D01*
X129301499Y-134528729D01*
X129301478Y-134528800D01*
X129301478Y-134813386D01*
X129318063Y-135045253D01*
X129334002Y-135268083D01*
X129334649Y-135277121D01*
X129334651Y-135277145D01*
X129400809Y-135737259D01*
X129400813Y-135737284D01*
X129400816Y-135737297D01*
X129499637Y-136191557D01*
X129499641Y-136191572D01*
X129596284Y-136520700D01*
X129614120Y-136581443D01*
X129630624Y-136637647D01*
X129793090Y-137073229D01*
X129986212Y-137496100D01*
X129986219Y-137496112D01*
X129986220Y-137496115D01*
X130031514Y-137579064D01*
X130209026Y-137904150D01*
X130209027Y-137904153D01*
X130390498Y-138186523D01*
X130460374Y-138295251D01*
X130738983Y-138667424D01*
X131043431Y-139018774D01*
X131133504Y-139108845D01*
X131133505Y-139108846D01*
X132695290Y-140670631D01*
X132777054Y-140752396D01*
X132781318Y-140756875D01*
X133005180Y-141003870D01*
X133013024Y-141013428D01*
X133209760Y-141278698D01*
X133216630Y-141288980D01*
X133386411Y-141572247D01*
X133392238Y-141583147D01*
X133533447Y-141881712D01*
X133538175Y-141893127D01*
X133547725Y-141919818D01*
X133551841Y-141990695D01*
X133516984Y-142052546D01*
X133454222Y-142085733D01*
X133383480Y-142079720D01*
X133375841Y-142076460D01*
X133259457Y-142022190D01*
X133259447Y-142022186D01*
X133038379Y-141962951D01*
X133038383Y-141962951D01*
X132810379Y-141943004D01*
X132582376Y-141962951D01*
X132361310Y-142022186D01*
X132361305Y-142022188D01*
X132153879Y-142118913D01*
X132082488Y-142168899D01*
X132769590Y-142856000D01*
X132757718Y-142856000D01*
X132655985Y-142883259D01*
X132564773Y-142935920D01*
X132490299Y-143010394D01*
X132437638Y-143101606D01*
X132410379Y-143203339D01*
X132410379Y-143215209D01*
X131723279Y-142528109D01*
X131673292Y-142599500D01*
X131576567Y-142806926D01*
X131576565Y-142806931D01*
X131517330Y-143027997D01*
X131497383Y-143256000D01*
X131517330Y-143484002D01*
X131576565Y-143705068D01*
X131576567Y-143705073D01*
X131673292Y-143912501D01*
X131723278Y-143983888D01*
X132410379Y-143296788D01*
X132410379Y-143308661D01*
X132437638Y-143410394D01*
X132490299Y-143501606D01*
X132564773Y-143576080D01*
X132655985Y-143628741D01*
X132757718Y-143656000D01*
X132769587Y-143656000D01*
X132082489Y-144343097D01*
X132082489Y-144343100D01*
X132153877Y-144393086D01*
X132361305Y-144489811D01*
X132361310Y-144489813D01*
X132582378Y-144549048D01*
X132582374Y-144549048D01*
X132810379Y-144568995D01*
X133038381Y-144549048D01*
X133259447Y-144489813D01*
X133259452Y-144489811D01*
X133466877Y-144393087D01*
X133603608Y-144297348D01*
X133670882Y-144274660D01*
X133739743Y-144291945D01*
X133788327Y-144343715D01*
X133801879Y-144400561D01*
X133801879Y-159239042D01*
X133801878Y-159239072D01*
X133801878Y-159310034D01*
X133801855Y-159310112D01*
X133801855Y-159685134D01*
X133801856Y-159685156D01*
X133838068Y-160329926D01*
X133910378Y-160971662D01*
X134018553Y-161608322D01*
X134162259Y-162237929D01*
X134162262Y-162237944D01*
X134341041Y-162858489D01*
X134341041Y-162858490D01*
X134554323Y-163468011D01*
X134554329Y-163468029D01*
X134554335Y-163468043D01*
X134801472Y-164064679D01*
X134801480Y-164064695D01*
X134801481Y-164064698D01*
X134814819Y-164092394D01*
X135069993Y-164622264D01*
X135081673Y-164646516D01*
X135081680Y-164646530D01*
X135394057Y-165211732D01*
X135737628Y-165758520D01*
X135737632Y-165758526D01*
X135737643Y-165758543D01*
X136111347Y-166285227D01*
X136513995Y-166790129D01*
X136944319Y-167271660D01*
X137088690Y-167416031D01*
X137088691Y-167416032D01*
X142781272Y-173108615D01*
X142781275Y-173108617D01*
X142781278Y-173108620D01*
X142973373Y-173248185D01*
X143184937Y-173355982D01*
X143410759Y-173429356D01*
X143645278Y-173466501D01*
X143645281Y-173466501D01*
X143882719Y-173466501D01*
X143882722Y-173466501D01*
X144117241Y-173429356D01*
X144343063Y-173355982D01*
X144554627Y-173248185D01*
X144716439Y-173130620D01*
X144783306Y-173106763D01*
X144852458Y-173122843D01*
X144901938Y-173173757D01*
X144916500Y-173232557D01*
X144916500Y-174230298D01*
X144896498Y-174298419D01*
X144879595Y-174319393D01*
X142899419Y-176299568D01*
X142899417Y-176299571D01*
X142794546Y-176443913D01*
X142713545Y-176602885D01*
X142713542Y-176602891D01*
X142658412Y-176772565D01*
X142658411Y-176772570D01*
X142658411Y-176772571D01*
X142630500Y-176948792D01*
X142630500Y-177127208D01*
X142658411Y-177303429D01*
X142658412Y-177303434D01*
X142713542Y-177473108D01*
X142713544Y-177473113D01*
X142794544Y-177632083D01*
X142899415Y-177776426D01*
X142899417Y-177776428D01*
X142899419Y-177776431D01*
X143025568Y-177902580D01*
X143025571Y-177902582D01*
X143025574Y-177902585D01*
X143169917Y-178007456D01*
X143328887Y-178088456D01*
X143498565Y-178143587D01*
X143498566Y-178143587D01*
X143498571Y-178143589D01*
X143674792Y-178171500D01*
X143674795Y-178171500D01*
X143853205Y-178171500D01*
X143853208Y-178171500D01*
X144029429Y-178143589D01*
X144199113Y-178088456D01*
X144358083Y-178007456D01*
X144502426Y-177902585D01*
X146914585Y-175490426D01*
X147019456Y-175346083D01*
X147100456Y-175187113D01*
X147155589Y-175017429D01*
X147183500Y-174841208D01*
X147183500Y-174662792D01*
X147183500Y-165582953D01*
X147203502Y-165514832D01*
X147208632Y-165507443D01*
X147213258Y-165501263D01*
X147213261Y-165501261D01*
X147300889Y-165384204D01*
X147351989Y-165247201D01*
X147358500Y-165186638D01*
X147358500Y-163489362D01*
X147356205Y-163468011D01*
X147351990Y-163428803D01*
X147351988Y-163428795D01*
X147300889Y-163291797D01*
X147300887Y-163291792D01*
X147253133Y-163228000D01*
X152730930Y-163228000D01*
X152751180Y-163498227D01*
X152811480Y-163762413D01*
X152811481Y-163762416D01*
X152910480Y-164014664D01*
X153045968Y-164249335D01*
X153098092Y-164314696D01*
X153098093Y-164314696D01*
X153605328Y-163807460D01*
X153704967Y-163944602D01*
X153827398Y-164067033D01*
X153964537Y-164166670D01*
X153456455Y-164674752D01*
X153456455Y-164674753D01*
X153637469Y-164798167D01*
X153637470Y-164798168D01*
X153881602Y-164915735D01*
X154140547Y-164995611D01*
X154140555Y-164995612D01*
X154408513Y-165036000D01*
X154679487Y-165036000D01*
X154947444Y-164995612D01*
X154947452Y-164995611D01*
X155206397Y-164915735D01*
X155450529Y-164798168D01*
X155450530Y-164798167D01*
X155631544Y-164674753D01*
X155123461Y-164166670D01*
X155260602Y-164067033D01*
X155383033Y-163944602D01*
X155482670Y-163807461D01*
X155989905Y-164314696D01*
X156022584Y-164312861D01*
X156091720Y-164329012D01*
X156129611Y-164361958D01*
X156197735Y-164450738D01*
X156197739Y-164450742D01*
X156197744Y-164450748D01*
X156369251Y-164622255D01*
X156369256Y-164622259D01*
X156369262Y-164622265D01*
X156561711Y-164769936D01*
X156561714Y-164769938D01*
X156771775Y-164891217D01*
X156771779Y-164891218D01*
X156771788Y-164891224D01*
X156995900Y-164984054D01*
X157230211Y-165046838D01*
X157230215Y-165046838D01*
X157230217Y-165046839D01*
X157292202Y-165054999D01*
X157470712Y-165078500D01*
X157470719Y-165078500D01*
X157713281Y-165078500D01*
X157713288Y-165078500D01*
X157930637Y-165049885D01*
X157953782Y-165046839D01*
X157953782Y-165046838D01*
X157953789Y-165046838D01*
X158188100Y-164984054D01*
X158412212Y-164891224D01*
X158622289Y-164769936D01*
X158814738Y-164622265D01*
X158986265Y-164450738D01*
X159133936Y-164258289D01*
X159255224Y-164048212D01*
X159348054Y-163824100D01*
X159410838Y-163589789D01*
X159442500Y-163349288D01*
X159442500Y-163106712D01*
X159410838Y-162866211D01*
X159348054Y-162631900D01*
X159255224Y-162407788D01*
X159255218Y-162407779D01*
X159255217Y-162407775D01*
X159133938Y-162197714D01*
X159133936Y-162197711D01*
X158986265Y-162005262D01*
X158986259Y-162005256D01*
X158986255Y-162005251D01*
X158814748Y-161833744D01*
X158814742Y-161833739D01*
X158814738Y-161833735D01*
X158622289Y-161686064D01*
X158622288Y-161686063D01*
X158622285Y-161686061D01*
X158412224Y-161564782D01*
X158412216Y-161564778D01*
X158412212Y-161564776D01*
X158188100Y-161471946D01*
X158188097Y-161471945D01*
X158188095Y-161471944D01*
X157953782Y-161409160D01*
X157713290Y-161377500D01*
X157713288Y-161377500D01*
X157470712Y-161377500D01*
X157470709Y-161377500D01*
X157230217Y-161409160D01*
X156995904Y-161471944D01*
X156995900Y-161471946D01*
X156830966Y-161540264D01*
X156771786Y-161564777D01*
X156771775Y-161564782D01*
X156561714Y-161686061D01*
X156369262Y-161833735D01*
X156369251Y-161833744D01*
X156197744Y-162005251D01*
X156197727Y-162005271D01*
X156129613Y-162094039D01*
X156072275Y-162135906D01*
X156022587Y-162143137D01*
X155989906Y-162141301D01*
X155482669Y-162648537D01*
X155383033Y-162511398D01*
X155260602Y-162388967D01*
X155123460Y-162289329D01*
X155631543Y-161781246D01*
X155631543Y-161781244D01*
X155450537Y-161657836D01*
X155450529Y-161657831D01*
X155206397Y-161540264D01*
X154947452Y-161460388D01*
X154947444Y-161460387D01*
X154679487Y-161420000D01*
X154408513Y-161420000D01*
X154140555Y-161460387D01*
X154140547Y-161460388D01*
X153881602Y-161540264D01*
X153637470Y-161657831D01*
X153637462Y-161657836D01*
X153456455Y-161781244D01*
X153456455Y-161781246D01*
X153964538Y-162289329D01*
X153827398Y-162388967D01*
X153704967Y-162511398D01*
X153605329Y-162648538D01*
X153098093Y-162141302D01*
X153098091Y-162141302D01*
X153045968Y-162206664D01*
X152910480Y-162441335D01*
X152811481Y-162693583D01*
X152811480Y-162693586D01*
X152751180Y-162957772D01*
X152730930Y-163228000D01*
X147253133Y-163228000D01*
X147208632Y-163168554D01*
X147183821Y-163102034D01*
X147183500Y-163093045D01*
X147183500Y-159164000D01*
X152730930Y-159164000D01*
X152751180Y-159434227D01*
X152811480Y-159698413D01*
X152811481Y-159698416D01*
X152910480Y-159950664D01*
X153045968Y-160185335D01*
X153098092Y-160250696D01*
X153098093Y-160250696D01*
X153605328Y-159743460D01*
X153704967Y-159880602D01*
X153827398Y-160003033D01*
X153964537Y-160102670D01*
X153456455Y-160610752D01*
X153456455Y-160610753D01*
X153637469Y-160734167D01*
X153637470Y-160734168D01*
X153881602Y-160851735D01*
X154140547Y-160931611D01*
X154140555Y-160931612D01*
X154408513Y-160972000D01*
X154679487Y-160972000D01*
X154947444Y-160931612D01*
X154947452Y-160931611D01*
X155206397Y-160851735D01*
X155450529Y-160734168D01*
X155450530Y-160734167D01*
X155631544Y-160610753D01*
X155123461Y-160102670D01*
X155260602Y-160003033D01*
X155383033Y-159880602D01*
X155482670Y-159743461D01*
X155989905Y-160250696D01*
X156022584Y-160248861D01*
X156091720Y-160265012D01*
X156129611Y-160297958D01*
X156197735Y-160386738D01*
X156197739Y-160386742D01*
X156197744Y-160386748D01*
X156369251Y-160558255D01*
X156369256Y-160558259D01*
X156369262Y-160558265D01*
X156561711Y-160705936D01*
X156561714Y-160705938D01*
X156771775Y-160827217D01*
X156771779Y-160827218D01*
X156771788Y-160827224D01*
X156995900Y-160920054D01*
X157230211Y-160982838D01*
X157230215Y-160982838D01*
X157230217Y-160982839D01*
X157292202Y-160990999D01*
X157470712Y-161014500D01*
X157470719Y-161014500D01*
X157713281Y-161014500D01*
X157713288Y-161014500D01*
X157930637Y-160985885D01*
X157953782Y-160982839D01*
X157953782Y-160982838D01*
X157953789Y-160982838D01*
X158188100Y-160920054D01*
X158412212Y-160827224D01*
X158622289Y-160705936D01*
X158814738Y-160558265D01*
X158986265Y-160386738D01*
X159133936Y-160194289D01*
X159255224Y-159984212D01*
X159348054Y-159760100D01*
X159410838Y-159525789D01*
X159442500Y-159285288D01*
X159442500Y-159042712D01*
X159410838Y-158802211D01*
X159348054Y-158567900D01*
X159255224Y-158343788D01*
X159255218Y-158343779D01*
X159255217Y-158343775D01*
X159133938Y-158133714D01*
X159133936Y-158133711D01*
X158986265Y-157941262D01*
X158986259Y-157941256D01*
X158986255Y-157941251D01*
X158814748Y-157769744D01*
X158814742Y-157769739D01*
X158814738Y-157769735D01*
X158622289Y-157622064D01*
X158622288Y-157622063D01*
X158622285Y-157622061D01*
X158412224Y-157500782D01*
X158412216Y-157500778D01*
X158412212Y-157500776D01*
X158188100Y-157407946D01*
X158188097Y-157407945D01*
X158188095Y-157407944D01*
X157953782Y-157345160D01*
X157713290Y-157313500D01*
X157713288Y-157313500D01*
X157470712Y-157313500D01*
X157470709Y-157313500D01*
X157230217Y-157345160D01*
X156995904Y-157407944D01*
X156995900Y-157407946D01*
X156830966Y-157476264D01*
X156771786Y-157500777D01*
X156771775Y-157500782D01*
X156561714Y-157622061D01*
X156369262Y-157769735D01*
X156369251Y-157769744D01*
X156197744Y-157941251D01*
X156197727Y-157941271D01*
X156129613Y-158030039D01*
X156072275Y-158071906D01*
X156022587Y-158079137D01*
X155989906Y-158077301D01*
X155482669Y-158584537D01*
X155383033Y-158447398D01*
X155260602Y-158324967D01*
X155123460Y-158225329D01*
X155631543Y-157717246D01*
X155631543Y-157717244D01*
X155450537Y-157593836D01*
X155450529Y-157593831D01*
X155206397Y-157476264D01*
X154947452Y-157396388D01*
X154947444Y-157396387D01*
X154679487Y-157356000D01*
X154408513Y-157356000D01*
X154140555Y-157396387D01*
X154140547Y-157396388D01*
X153881602Y-157476264D01*
X153637470Y-157593831D01*
X153637462Y-157593836D01*
X153456455Y-157717244D01*
X153456455Y-157717246D01*
X153964538Y-158225329D01*
X153827398Y-158324967D01*
X153704967Y-158447398D01*
X153605329Y-158584538D01*
X153098093Y-158077302D01*
X153098091Y-158077302D01*
X153045968Y-158142664D01*
X152910480Y-158377335D01*
X152811481Y-158629583D01*
X152811480Y-158629586D01*
X152751180Y-158893772D01*
X152730930Y-159164000D01*
X147183500Y-159164000D01*
X147183500Y-157493701D01*
X147203502Y-157425580D01*
X147220405Y-157404606D01*
X148354606Y-156270405D01*
X148416918Y-156236379D01*
X148443701Y-156233500D01*
X153074098Y-156233500D01*
X153142219Y-156253502D01*
X153172608Y-156280939D01*
X153214560Y-156333545D01*
X153273241Y-156387992D01*
X153413257Y-156517907D01*
X153413263Y-156517911D01*
X153637205Y-156670593D01*
X153637212Y-156670597D01*
X153637215Y-156670599D01*
X153682577Y-156692444D01*
X153881423Y-156788204D01*
X153881436Y-156788209D01*
X154140431Y-156868098D01*
X154140433Y-156868098D01*
X154140442Y-156868101D01*
X154408472Y-156908500D01*
X154408476Y-156908500D01*
X154679524Y-156908500D01*
X154679528Y-156908500D01*
X154947558Y-156868101D01*
X154947568Y-156868098D01*
X155206563Y-156788209D01*
X155206565Y-156788207D01*
X155206572Y-156788206D01*
X155206577Y-156788203D01*
X155206581Y-156788202D01*
X155450780Y-156670602D01*
X155450780Y-156670601D01*
X155450786Y-156670599D01*
X155674743Y-156517907D01*
X155873442Y-156333542D01*
X155942514Y-156246927D01*
X156000625Y-156206140D01*
X156071562Y-156203243D01*
X156132804Y-156239159D01*
X156140982Y-156248776D01*
X156157579Y-156270405D01*
X156197735Y-156322738D01*
X156197744Y-156322748D01*
X156369251Y-156494255D01*
X156369256Y-156494259D01*
X156369262Y-156494265D01*
X156561711Y-156641936D01*
X156561714Y-156641938D01*
X156771775Y-156763217D01*
X156771779Y-156763218D01*
X156771788Y-156763224D01*
X156995900Y-156856054D01*
X157230211Y-156918838D01*
X157230215Y-156918838D01*
X157230217Y-156918839D01*
X157292202Y-156926999D01*
X157470712Y-156950500D01*
X157470719Y-156950500D01*
X157713281Y-156950500D01*
X157713288Y-156950500D01*
X157930637Y-156921885D01*
X157953782Y-156918839D01*
X157953782Y-156918838D01*
X157953789Y-156918838D01*
X158188100Y-156856054D01*
X158412212Y-156763224D01*
X158622289Y-156641936D01*
X158814738Y-156494265D01*
X158986265Y-156322738D01*
X159133936Y-156130289D01*
X159255224Y-155920212D01*
X159348054Y-155696100D01*
X159410838Y-155461789D01*
X159442500Y-155221288D01*
X159442500Y-154978712D01*
X159410838Y-154738211D01*
X159348054Y-154503900D01*
X159255224Y-154279788D01*
X159255218Y-154279779D01*
X159255217Y-154279775D01*
X159133938Y-154069714D01*
X159118461Y-154049544D01*
X158986265Y-153877262D01*
X158986259Y-153877256D01*
X158986255Y-153877251D01*
X158814748Y-153705744D01*
X158814742Y-153705739D01*
X158814738Y-153705735D01*
X158622289Y-153558064D01*
X158622288Y-153558063D01*
X158622285Y-153558061D01*
X158412224Y-153436782D01*
X158412216Y-153436778D01*
X158412212Y-153436776D01*
X158188100Y-153343946D01*
X158188097Y-153343945D01*
X158188095Y-153343944D01*
X157953782Y-153281160D01*
X157713290Y-153249500D01*
X157713288Y-153249500D01*
X157470712Y-153249500D01*
X157470709Y-153249500D01*
X157230217Y-153281160D01*
X156995904Y-153343944D01*
X156995900Y-153343946D01*
X156771786Y-153436777D01*
X156771775Y-153436782D01*
X156561714Y-153558061D01*
X156369262Y-153705735D01*
X156369251Y-153705744D01*
X156197744Y-153877251D01*
X156197732Y-153877264D01*
X156140986Y-153951217D01*
X156083647Y-153993084D01*
X156012776Y-153997305D01*
X155950874Y-153962540D01*
X155942513Y-153953071D01*
X155873442Y-153866457D01*
X155873439Y-153866455D01*
X155674748Y-153682098D01*
X155674742Y-153682092D01*
X155576736Y-153615273D01*
X155450786Y-153529401D01*
X155450783Y-153529400D01*
X155450781Y-153529398D01*
X155450780Y-153529397D01*
X155206581Y-153411797D01*
X155206563Y-153411790D01*
X154947568Y-153331901D01*
X154947560Y-153331899D01*
X154947558Y-153331899D01*
X154679528Y-153291500D01*
X154408472Y-153291500D01*
X154140442Y-153331899D01*
X154140440Y-153331899D01*
X154140431Y-153331901D01*
X153881436Y-153411790D01*
X153881423Y-153411795D01*
X153637212Y-153529402D01*
X153637205Y-153529406D01*
X153413263Y-153682088D01*
X153413251Y-153682098D01*
X153214560Y-153866454D01*
X153172608Y-153919061D01*
X153114497Y-153959848D01*
X153074098Y-153966500D01*
X148011208Y-153966500D01*
X147832792Y-153966500D01*
X147656571Y-153994411D01*
X147656565Y-153994412D01*
X147486891Y-154049542D01*
X147486885Y-154049545D01*
X147327913Y-154130546D01*
X147183571Y-154235417D01*
X147183568Y-154235419D01*
X145355900Y-156063087D01*
X145333145Y-156081113D01*
X145329123Y-156083603D01*
X145177297Y-156222009D01*
X145089538Y-156338223D01*
X145032525Y-156380530D01*
X144980317Y-156387992D01*
X144945610Y-156385597D01*
X144292785Y-157038423D01*
X144300000Y-157011496D01*
X144300000Y-156932504D01*
X144279556Y-156856204D01*
X144240060Y-156787795D01*
X144184205Y-156731940D01*
X144115796Y-156692444D01*
X144039496Y-156672000D01*
X143960504Y-156672000D01*
X143884204Y-156692444D01*
X143815795Y-156731940D01*
X143759940Y-156787795D01*
X143720444Y-156856204D01*
X143700000Y-156932504D01*
X143700000Y-157011496D01*
X143720444Y-157087796D01*
X143759940Y-157156205D01*
X143815795Y-157212060D01*
X143884204Y-157251556D01*
X143960504Y-157272000D01*
X144039496Y-157272000D01*
X144066424Y-157264784D01*
X144000000Y-157331209D01*
X144000000Y-157331210D01*
X143416994Y-157914214D01*
X143504007Y-157968090D01*
X143504014Y-157968093D01*
X143695474Y-158042266D01*
X143695477Y-158042267D01*
X143897331Y-158080000D01*
X144102669Y-158080000D01*
X144304522Y-158042267D01*
X144304525Y-158042266D01*
X144495988Y-157968092D01*
X144496003Y-157968085D01*
X144670578Y-157859992D01*
X144670579Y-157859991D01*
X144705613Y-157828054D01*
X144769430Y-157796942D01*
X144839936Y-157805271D01*
X144894747Y-157850397D01*
X144916460Y-157917992D01*
X144916500Y-157921168D01*
X144916500Y-163093045D01*
X144896498Y-163161166D01*
X144891368Y-163168554D01*
X144799112Y-163291792D01*
X144799110Y-163291797D01*
X144748011Y-163428795D01*
X144748009Y-163428803D01*
X144741500Y-163489350D01*
X144741500Y-165186649D01*
X144748009Y-165247196D01*
X144748011Y-165247204D01*
X144799110Y-165384202D01*
X144799110Y-165384203D01*
X144799111Y-165384204D01*
X144886739Y-165501261D01*
X144886741Y-165501262D01*
X144891368Y-165507443D01*
X144916179Y-165573963D01*
X144916500Y-165582953D01*
X144916500Y-170672967D01*
X144896498Y-170741088D01*
X144842842Y-170787581D01*
X144772568Y-170797685D01*
X144707988Y-170768191D01*
X144701405Y-170762062D01*
X139394338Y-165454997D01*
X139394329Y-165454987D01*
X139307446Y-165368105D01*
X139304603Y-165365168D01*
X138928938Y-164964076D01*
X138923508Y-164957884D01*
X138868801Y-164891224D01*
X138576233Y-164534729D01*
X138571213Y-164528187D01*
X138434926Y-164338000D01*
X141237004Y-164338000D01*
X141256951Y-164566002D01*
X141316186Y-164787068D01*
X141316188Y-164787073D01*
X141412913Y-164994501D01*
X141462899Y-165065888D01*
X142150000Y-164378788D01*
X142150000Y-164390661D01*
X142177259Y-164492394D01*
X142229920Y-164583606D01*
X142304394Y-164658080D01*
X142395606Y-164710741D01*
X142497339Y-164738000D01*
X142509210Y-164738000D01*
X141822110Y-165425098D01*
X141822110Y-165425100D01*
X141893498Y-165475086D01*
X142100926Y-165571811D01*
X142100931Y-165571813D01*
X142321999Y-165631048D01*
X142321995Y-165631048D01*
X142550000Y-165650995D01*
X142778002Y-165631048D01*
X142999068Y-165571813D01*
X142999073Y-165571811D01*
X143206497Y-165475088D01*
X143277888Y-165425099D01*
X143277888Y-165425097D01*
X142590791Y-164738000D01*
X142602661Y-164738000D01*
X142704394Y-164710741D01*
X142795606Y-164658080D01*
X142870080Y-164583606D01*
X142922741Y-164492394D01*
X142950000Y-164390661D01*
X142950000Y-164378791D01*
X143637097Y-165065888D01*
X143637099Y-165065888D01*
X143687088Y-164994497D01*
X143783811Y-164787073D01*
X143783813Y-164787068D01*
X143843048Y-164566002D01*
X143862995Y-164338000D01*
X143843048Y-164109997D01*
X143783813Y-163888931D01*
X143783811Y-163888926D01*
X143687086Y-163681498D01*
X143637100Y-163610110D01*
X143637098Y-163610110D01*
X142950000Y-164297208D01*
X142950000Y-164285339D01*
X142922741Y-164183606D01*
X142870080Y-164092394D01*
X142795606Y-164017920D01*
X142704394Y-163965259D01*
X142602661Y-163938000D01*
X142590790Y-163938000D01*
X143277888Y-163250899D01*
X143277888Y-163250898D01*
X143206501Y-163200913D01*
X142999073Y-163104188D01*
X142999068Y-163104186D01*
X142778000Y-163044951D01*
X142778004Y-163044951D01*
X142550000Y-163025004D01*
X142321997Y-163044951D01*
X142100931Y-163104186D01*
X142100926Y-163104188D01*
X141893500Y-163200913D01*
X141822109Y-163250900D01*
X142509209Y-163938000D01*
X142497339Y-163938000D01*
X142395606Y-163965259D01*
X142304394Y-164017920D01*
X142229920Y-164092394D01*
X142177259Y-164183606D01*
X142150000Y-164285339D01*
X142150000Y-164297209D01*
X141462900Y-163610109D01*
X141412913Y-163681500D01*
X141316188Y-163888926D01*
X141316186Y-163888931D01*
X141256951Y-164109997D01*
X141237004Y-164338000D01*
X138434926Y-164338000D01*
X138252348Y-164083213D01*
X138247768Y-164076358D01*
X138240505Y-164064679D01*
X137958696Y-163611495D01*
X137954573Y-163604354D01*
X137818238Y-163349290D01*
X137696518Y-163121571D01*
X137692873Y-163114179D01*
X137689490Y-163106712D01*
X137466941Y-162615542D01*
X137463791Y-162607935D01*
X137324535Y-162237944D01*
X137270957Y-162095591D01*
X137268309Y-162087788D01*
X137109399Y-161563938D01*
X137107268Y-161555984D01*
X137087673Y-161471946D01*
X136982956Y-161022846D01*
X136981356Y-161014808D01*
X136892175Y-160474657D01*
X136891101Y-160466493D01*
X136883246Y-160386748D01*
X136837442Y-159921713D01*
X136836903Y-159913495D01*
X136829861Y-159698416D01*
X136818946Y-159365016D01*
X136818879Y-159360893D01*
X136818879Y-156972004D01*
X142887253Y-156972004D01*
X142906199Y-157176461D01*
X142906199Y-157176465D01*
X142962391Y-157373962D01*
X142962394Y-157373970D01*
X143053922Y-157557785D01*
X143053925Y-157557789D01*
X143054387Y-157558400D01*
X143054388Y-157558400D01*
X143640790Y-156971999D01*
X143054389Y-156385598D01*
X143054387Y-156385598D01*
X143053923Y-156386213D01*
X142962394Y-156570029D01*
X142962391Y-156570037D01*
X142906199Y-156767534D01*
X142906199Y-156767538D01*
X142887253Y-156971995D01*
X142887253Y-156972004D01*
X136818879Y-156972004D01*
X136818879Y-156029784D01*
X143416993Y-156029784D01*
X143999999Y-156612790D01*
X144000000Y-156612790D01*
X144583005Y-156029783D01*
X144495999Y-155975913D01*
X144495987Y-155975907D01*
X144304525Y-155901733D01*
X144304522Y-155901732D01*
X144102669Y-155864000D01*
X143897331Y-155864000D01*
X143695477Y-155901732D01*
X143695474Y-155901733D01*
X143504004Y-155975910D01*
X143504000Y-155975912D01*
X143416993Y-156029783D01*
X143416993Y-156029784D01*
X136818879Y-156029784D01*
X136818879Y-151564214D01*
X143466994Y-151564214D01*
X143554007Y-151618090D01*
X143554014Y-151618093D01*
X143745474Y-151692266D01*
X143745477Y-151692267D01*
X143947331Y-151730000D01*
X144152669Y-151730000D01*
X144354522Y-151692267D01*
X144354525Y-151692266D01*
X144545988Y-151618092D01*
X144545997Y-151618087D01*
X144633005Y-151564214D01*
X144050001Y-150981210D01*
X144050000Y-150981210D01*
X143466994Y-151564214D01*
X136818879Y-151564214D01*
X136818879Y-150622004D01*
X142937253Y-150622004D01*
X142956199Y-150826461D01*
X142956199Y-150826465D01*
X143012391Y-151023962D01*
X143012394Y-151023970D01*
X143103922Y-151207785D01*
X143103925Y-151207789D01*
X143104387Y-151208400D01*
X143104388Y-151208400D01*
X143690790Y-150621999D01*
X143104389Y-150035598D01*
X143104387Y-150035598D01*
X143103923Y-150036213D01*
X143012394Y-150220029D01*
X143012391Y-150220037D01*
X142956199Y-150417534D01*
X142956199Y-150417538D01*
X142937253Y-150621995D01*
X142937253Y-150622004D01*
X136818879Y-150622004D01*
X136818879Y-143933031D01*
X136838881Y-143864910D01*
X136855784Y-143843936D01*
X143714615Y-136985106D01*
X143714615Y-136985105D01*
X143714620Y-136985101D01*
X143854185Y-136793006D01*
X143961982Y-136581442D01*
X144035356Y-136355620D01*
X144072500Y-136121101D01*
X144072500Y-135883657D01*
X144072500Y-84421278D01*
X144035356Y-84186759D01*
X143961982Y-83960937D01*
X143854185Y-83749373D01*
X143824531Y-83708558D01*
X143800675Y-83641694D01*
X143816755Y-83572543D01*
X143867668Y-83523062D01*
X143926469Y-83508500D01*
X153865500Y-83508500D01*
X153933621Y-83528502D01*
X153980114Y-83582158D01*
X153991500Y-83634500D01*
X153991500Y-136322969D01*
X153971498Y-136391090D01*
X153954595Y-136412064D01*
X148910064Y-141456595D01*
X148847752Y-141490621D01*
X148820969Y-141493500D01*
X146439278Y-141493500D01*
X146204759Y-141530644D01*
X146204753Y-141530645D01*
X145978941Y-141604016D01*
X145978929Y-141604021D01*
X145830270Y-141679767D01*
X145773068Y-141693500D01*
X145076001Y-141693500D01*
X145015454Y-141700009D01*
X145015446Y-141700011D01*
X144878448Y-141751110D01*
X144878443Y-141751112D01*
X144761389Y-141838738D01*
X144673763Y-141955792D01*
X144673761Y-141955797D01*
X144622662Y-142092795D01*
X144622660Y-142092803D01*
X144616151Y-142153350D01*
X144616151Y-142655299D01*
X144596149Y-142723420D01*
X144579250Y-142744389D01*
X144222034Y-143101606D01*
X143912604Y-143411036D01*
X143850292Y-143445061D01*
X143779476Y-143439996D01*
X143722641Y-143397449D01*
X143697830Y-143330929D01*
X143701803Y-143289328D01*
X143717698Y-143230007D01*
X143717699Y-143230004D01*
X143737646Y-143002000D01*
X143717699Y-142773997D01*
X143658464Y-142552931D01*
X143658462Y-142552926D01*
X143561737Y-142345498D01*
X143511751Y-142274110D01*
X143511748Y-142274110D01*
X142824651Y-142961208D01*
X142824651Y-142949339D01*
X142797392Y-142847606D01*
X142744731Y-142756394D01*
X142670257Y-142681920D01*
X142579045Y-142629259D01*
X142477312Y-142602000D01*
X142465441Y-142602000D01*
X143152539Y-141914899D01*
X143152539Y-141914898D01*
X143081152Y-141864913D01*
X142873724Y-141768188D01*
X142873719Y-141768186D01*
X142652651Y-141708951D01*
X142652655Y-141708951D01*
X142424651Y-141689004D01*
X142196648Y-141708951D01*
X141975582Y-141768186D01*
X141975577Y-141768188D01*
X141768151Y-141864913D01*
X141696760Y-141914900D01*
X142383860Y-142602000D01*
X142371990Y-142602000D01*
X142270257Y-142629259D01*
X142179045Y-142681920D01*
X142104571Y-142756394D01*
X142051910Y-142847606D01*
X142024651Y-142949339D01*
X142024651Y-142961209D01*
X141337551Y-142274109D01*
X141287564Y-142345500D01*
X141190839Y-142552926D01*
X141190837Y-142552931D01*
X141131602Y-142773997D01*
X141111655Y-143002000D01*
X141131602Y-143230002D01*
X141190837Y-143451068D01*
X141190839Y-143451073D01*
X141287564Y-143658501D01*
X141337550Y-143729888D01*
X142024651Y-143042788D01*
X142024651Y-143054661D01*
X142051910Y-143156394D01*
X142104571Y-143247606D01*
X142179045Y-143322080D01*
X142270257Y-143374741D01*
X142371990Y-143402000D01*
X142383861Y-143402000D01*
X141696761Y-144089098D01*
X141696761Y-144089100D01*
X141768149Y-144139086D01*
X141975577Y-144235811D01*
X141975582Y-144235813D01*
X142196650Y-144295048D01*
X142196646Y-144295048D01*
X142424651Y-144314995D01*
X142652653Y-144295048D01*
X142873719Y-144235813D01*
X142873729Y-144235809D01*
X143014790Y-144170031D01*
X143084982Y-144159369D01*
X143149795Y-144188348D01*
X143188651Y-144247768D01*
X143189215Y-144318762D01*
X143187875Y-144323159D01*
X143166412Y-144389218D01*
X143166411Y-144389222D01*
X143138500Y-144565443D01*
X143138500Y-148754792D01*
X143138500Y-148933208D01*
X143166411Y-149109429D01*
X143166412Y-149109434D01*
X143201414Y-149217160D01*
X143221544Y-149279113D01*
X143302544Y-149438083D01*
X143407415Y-149582426D01*
X143407417Y-149582428D01*
X143407419Y-149582431D01*
X143427832Y-149602844D01*
X143461858Y-149665156D01*
X143462351Y-149675141D01*
X144050000Y-150262789D01*
X144050000Y-150262790D01*
X144116425Y-150329215D01*
X144089496Y-150322000D01*
X144010504Y-150322000D01*
X143934204Y-150342444D01*
X143865795Y-150381940D01*
X143809940Y-150437795D01*
X143770444Y-150506204D01*
X143750000Y-150582504D01*
X143750000Y-150661496D01*
X143770444Y-150737796D01*
X143809940Y-150806205D01*
X143865795Y-150862060D01*
X143934204Y-150901556D01*
X144010504Y-150922000D01*
X144089496Y-150922000D01*
X144165796Y-150901556D01*
X144234205Y-150862060D01*
X144290060Y-150806205D01*
X144329556Y-150737796D01*
X144350000Y-150661496D01*
X144350000Y-150582504D01*
X144342784Y-150555574D01*
X145003709Y-151216500D01*
X145043105Y-151225189D01*
X145071492Y-151246503D01*
X145222771Y-151397782D01*
X145311573Y-151486584D01*
X145356812Y-151519452D01*
X145371846Y-151532293D01*
X145553705Y-151714152D01*
X145566542Y-151729180D01*
X145599415Y-151774426D01*
X145599417Y-151774428D01*
X145599420Y-151774432D01*
X145725568Y-151900580D01*
X145725571Y-151900582D01*
X145725574Y-151900585D01*
X145869917Y-152005456D01*
X146028887Y-152086456D01*
X146198565Y-152141587D01*
X146198566Y-152141587D01*
X146198571Y-152141589D01*
X146374792Y-152169500D01*
X146389356Y-152169500D01*
X151642792Y-152169500D01*
X153074098Y-152169500D01*
X153142219Y-152189502D01*
X153172608Y-152216939D01*
X153214560Y-152269545D01*
X153358720Y-152403304D01*
X153413257Y-152453907D01*
X153413263Y-152453911D01*
X153637205Y-152606593D01*
X153637212Y-152606597D01*
X153637215Y-152606599D01*
X153778003Y-152674399D01*
X153881423Y-152724204D01*
X153881436Y-152724209D01*
X154140431Y-152804098D01*
X154140433Y-152804098D01*
X154140442Y-152804101D01*
X154408472Y-152844500D01*
X154408476Y-152844500D01*
X154679524Y-152844500D01*
X154679528Y-152844500D01*
X154947558Y-152804101D01*
X154947568Y-152804098D01*
X155206563Y-152724209D01*
X155206565Y-152724207D01*
X155206572Y-152724206D01*
X155206577Y-152724203D01*
X155206581Y-152724202D01*
X155450780Y-152606602D01*
X155450780Y-152606601D01*
X155450786Y-152606599D01*
X155674743Y-152453907D01*
X155873442Y-152269542D01*
X155942514Y-152182927D01*
X156000625Y-152142140D01*
X156071562Y-152139243D01*
X156132804Y-152175159D01*
X156140982Y-152184776D01*
X156165662Y-152216939D01*
X156197735Y-152258738D01*
X156197744Y-152258748D01*
X156369251Y-152430255D01*
X156369256Y-152430259D01*
X156369262Y-152430265D01*
X156561711Y-152577936D01*
X156561714Y-152577938D01*
X156771775Y-152699217D01*
X156771779Y-152699218D01*
X156771788Y-152699224D01*
X156995900Y-152792054D01*
X157230211Y-152854838D01*
X157230215Y-152854838D01*
X157230217Y-152854839D01*
X157292202Y-152862999D01*
X157470712Y-152886500D01*
X157470719Y-152886500D01*
X157713281Y-152886500D01*
X157713288Y-152886500D01*
X157930637Y-152857885D01*
X157953782Y-152854839D01*
X157953782Y-152854838D01*
X157953789Y-152854838D01*
X158188100Y-152792054D01*
X158412212Y-152699224D01*
X158622289Y-152577936D01*
X158814738Y-152430265D01*
X158986265Y-152258738D01*
X159133936Y-152066289D01*
X159255224Y-151856212D01*
X159348054Y-151632100D01*
X159410838Y-151397789D01*
X159442500Y-151157288D01*
X159442500Y-150914712D01*
X159410838Y-150674211D01*
X159348054Y-150439900D01*
X159255224Y-150215788D01*
X159255218Y-150215779D01*
X159255217Y-150215775D01*
X159133938Y-150005714D01*
X159133936Y-150005711D01*
X158986265Y-149813262D01*
X158986259Y-149813256D01*
X158986255Y-149813251D01*
X158814748Y-149641744D01*
X158814742Y-149641739D01*
X158814738Y-149641735D01*
X158622289Y-149494064D01*
X158622288Y-149494063D01*
X158622285Y-149494061D01*
X158412224Y-149372782D01*
X158412216Y-149372778D01*
X158412212Y-149372776D01*
X158188100Y-149279946D01*
X158188097Y-149279945D01*
X158188095Y-149279944D01*
X157953782Y-149217160D01*
X157713290Y-149185500D01*
X157713288Y-149185500D01*
X157470712Y-149185500D01*
X157470709Y-149185500D01*
X157230217Y-149217160D01*
X156995904Y-149279944D01*
X156995900Y-149279946D01*
X156771786Y-149372777D01*
X156771775Y-149372782D01*
X156561714Y-149494061D01*
X156369262Y-149641735D01*
X156369251Y-149641744D01*
X156197744Y-149813251D01*
X156197732Y-149813264D01*
X156140986Y-149887217D01*
X156083647Y-149929084D01*
X156012776Y-149933305D01*
X155950874Y-149898540D01*
X155942513Y-149889071D01*
X155937271Y-149882498D01*
X155915391Y-149855061D01*
X155873442Y-149802457D01*
X155873439Y-149802455D01*
X155674748Y-149618098D01*
X155674742Y-149618092D01*
X155576736Y-149551273D01*
X155450786Y-149465401D01*
X155450783Y-149465400D01*
X155450781Y-149465398D01*
X155450780Y-149465397D01*
X155206581Y-149347797D01*
X155206563Y-149347790D01*
X154947568Y-149267901D01*
X154947560Y-149267899D01*
X154947558Y-149267899D01*
X154679528Y-149227500D01*
X154408472Y-149227500D01*
X154140442Y-149267899D01*
X154140440Y-149267899D01*
X154140431Y-149267901D01*
X153881436Y-149347790D01*
X153881423Y-149347795D01*
X153637212Y-149465402D01*
X153637205Y-149465406D01*
X153413263Y-149618088D01*
X153413251Y-149618098D01*
X153214560Y-149802454D01*
X153172608Y-149855061D01*
X153114497Y-149895848D01*
X153074098Y-149902500D01*
X147000265Y-149902500D01*
X146932144Y-149882498D01*
X146911170Y-149865595D01*
X145442405Y-148396830D01*
X145408379Y-148334518D01*
X145405500Y-148307735D01*
X145405500Y-146972000D01*
X152730429Y-146972000D01*
X152750685Y-147242302D01*
X152811001Y-147506560D01*
X152811002Y-147506562D01*
X152910027Y-147758875D01*
X152910030Y-147758883D01*
X153045554Y-147993617D01*
X153045556Y-147993620D01*
X153045557Y-147993621D01*
X153110648Y-148075243D01*
X153214561Y-148205546D01*
X153324696Y-148307735D01*
X153413257Y-148389907D01*
X153413263Y-148389911D01*
X153637205Y-148542593D01*
X153637212Y-148542597D01*
X153637215Y-148542599D01*
X153778003Y-148610399D01*
X153881423Y-148660204D01*
X153881436Y-148660209D01*
X154140431Y-148740098D01*
X154140433Y-148740098D01*
X154140442Y-148740101D01*
X154408472Y-148780500D01*
X154408476Y-148780500D01*
X154679524Y-148780500D01*
X154679528Y-148780500D01*
X154947558Y-148740101D01*
X154947568Y-148740098D01*
X155206563Y-148660209D01*
X155206565Y-148660207D01*
X155206572Y-148660206D01*
X155206577Y-148660203D01*
X155206581Y-148660202D01*
X155450780Y-148542602D01*
X155450780Y-148542601D01*
X155450786Y-148542599D01*
X155674743Y-148389907D01*
X155873442Y-148205542D01*
X155942514Y-148118927D01*
X156000625Y-148078140D01*
X156071562Y-148075243D01*
X156132804Y-148111159D01*
X156140982Y-148120776D01*
X156197734Y-148194737D01*
X156197735Y-148194738D01*
X156197744Y-148194748D01*
X156369251Y-148366255D01*
X156369256Y-148366259D01*
X156369262Y-148366265D01*
X156561711Y-148513936D01*
X156561714Y-148513938D01*
X156771775Y-148635217D01*
X156771779Y-148635218D01*
X156771788Y-148635224D01*
X156995900Y-148728054D01*
X157230211Y-148790838D01*
X157230215Y-148790838D01*
X157230217Y-148790839D01*
X157292202Y-148798999D01*
X157470712Y-148822500D01*
X157470719Y-148822500D01*
X157713281Y-148822500D01*
X157713288Y-148822500D01*
X157930637Y-148793885D01*
X157953782Y-148790839D01*
X157953782Y-148790838D01*
X157953789Y-148790838D01*
X158188100Y-148728054D01*
X158412212Y-148635224D01*
X158622289Y-148513936D01*
X158814738Y-148366265D01*
X158986265Y-148194738D01*
X159133936Y-148002289D01*
X159255224Y-147792212D01*
X159348054Y-147568100D01*
X159410838Y-147333789D01*
X159442500Y-147093288D01*
X159442500Y-146850712D01*
X159410838Y-146610211D01*
X159348054Y-146375900D01*
X159255224Y-146151788D01*
X159255218Y-146151779D01*
X159255217Y-146151775D01*
X159133938Y-145941714D01*
X159133936Y-145941711D01*
X158986265Y-145749262D01*
X158986259Y-145749256D01*
X158986255Y-145749251D01*
X158814748Y-145577744D01*
X158814742Y-145577739D01*
X158814738Y-145577735D01*
X158622289Y-145430064D01*
X158622288Y-145430063D01*
X158622285Y-145430061D01*
X158412224Y-145308782D01*
X158412216Y-145308778D01*
X158412212Y-145308776D01*
X158188100Y-145215946D01*
X158188097Y-145215945D01*
X158188095Y-145215944D01*
X157953782Y-145153160D01*
X157713290Y-145121500D01*
X157713288Y-145121500D01*
X157470712Y-145121500D01*
X157470709Y-145121500D01*
X157230217Y-145153160D01*
X156995904Y-145215944D01*
X156995900Y-145215946D01*
X156771786Y-145308777D01*
X156771775Y-145308782D01*
X156561714Y-145430061D01*
X156369262Y-145577735D01*
X156369251Y-145577744D01*
X156197744Y-145749251D01*
X156197732Y-145749264D01*
X156140986Y-145823217D01*
X156083647Y-145865084D01*
X156012776Y-145869305D01*
X155950874Y-145834540D01*
X155942513Y-145825071D01*
X155873442Y-145738457D01*
X155873439Y-145738455D01*
X155674748Y-145554098D01*
X155674742Y-145554092D01*
X155576736Y-145487273D01*
X155450786Y-145401401D01*
X155450783Y-145401400D01*
X155450781Y-145401398D01*
X155450780Y-145401397D01*
X155206581Y-145283797D01*
X155206563Y-145283790D01*
X154947568Y-145203901D01*
X154947560Y-145203899D01*
X154947558Y-145203899D01*
X154679528Y-145163500D01*
X154408472Y-145163500D01*
X154140442Y-145203899D01*
X154140440Y-145203899D01*
X154140431Y-145203901D01*
X153881436Y-145283790D01*
X153881423Y-145283795D01*
X153637212Y-145401402D01*
X153637205Y-145401406D01*
X153413263Y-145554088D01*
X153413251Y-145554098D01*
X153214561Y-145738453D01*
X153045554Y-145950382D01*
X152910030Y-146185116D01*
X152910027Y-146185124D01*
X152811002Y-146437437D01*
X152811001Y-146437439D01*
X152750685Y-146701697D01*
X152730429Y-146972000D01*
X145405500Y-146972000D01*
X145405500Y-145176352D01*
X145425502Y-145108231D01*
X145442400Y-145087261D01*
X146038115Y-144491545D01*
X146100426Y-144457522D01*
X146166147Y-144460810D01*
X146204751Y-144473354D01*
X146204754Y-144473354D01*
X146204759Y-144473356D01*
X146439278Y-144510500D01*
X149374061Y-144510500D01*
X149374085Y-144510501D01*
X149379278Y-144510501D01*
X149616719Y-144510501D01*
X149616722Y-144510501D01*
X149851241Y-144473356D01*
X150077063Y-144399982D01*
X150288627Y-144292185D01*
X150388617Y-144219538D01*
X150480722Y-144152620D01*
X150648620Y-143984722D01*
X150655793Y-143977549D01*
X150655804Y-143977535D01*
X156163640Y-138469701D01*
X156650620Y-137982722D01*
X156790185Y-137790627D01*
X156897982Y-137579063D01*
X156971356Y-137353241D01*
X156975697Y-137325834D01*
X157008501Y-137118722D01*
X157008501Y-136881278D01*
X157008501Y-136876821D01*
X157008500Y-136876791D01*
X157008500Y-82502298D01*
X157014238Y-82466071D01*
X157014199Y-82466062D01*
X157014320Y-82465557D01*
X157014669Y-82463355D01*
X157015355Y-82461244D01*
X157015354Y-82461244D01*
X157015356Y-82461241D01*
X157052501Y-82226722D01*
X157052501Y-81989278D01*
X157015356Y-81754759D01*
X156941982Y-81528937D01*
X156834185Y-81317373D01*
X156694620Y-81125279D01*
X156591020Y-81021679D01*
X156591003Y-81021660D01*
X156418727Y-80849384D01*
X156418724Y-80849382D01*
X156418722Y-80849380D01*
X156226627Y-80709815D01*
X156015063Y-80602018D01*
X156015060Y-80602017D01*
X156015058Y-80602016D01*
X155789245Y-80528645D01*
X155789243Y-80528644D01*
X155789241Y-80528644D01*
X155554722Y-80491499D01*
X155317278Y-80491499D01*
X155312085Y-80491499D01*
X155312061Y-80491500D01*
X143914637Y-80491500D01*
X143846516Y-80471498D01*
X143800023Y-80417842D01*
X143789919Y-80347568D01*
X143812701Y-80291439D01*
X143860628Y-80225472D01*
X143964996Y-80020638D01*
X143964999Y-80020632D01*
X144036035Y-79802006D01*
X144049975Y-79714000D01*
X143052438Y-79714000D01*
X143076518Y-79672292D01*
X143114000Y-79532409D01*
X143114000Y-79387591D01*
X143076518Y-79247708D01*
X143052438Y-79206000D01*
X144049974Y-79206000D01*
X144036035Y-79117993D01*
X143964999Y-78899367D01*
X143964996Y-78899361D01*
X143860628Y-78694527D01*
X143725504Y-78508545D01*
X143725502Y-78508542D01*
X143562957Y-78345997D01*
X143562954Y-78345995D01*
X143376972Y-78210871D01*
X143172138Y-78106503D01*
X143172132Y-78106500D01*
X142953506Y-78035464D01*
X142818000Y-78014001D01*
X142818000Y-78971561D01*
X142776292Y-78947482D01*
X142636409Y-78910000D01*
X142491591Y-78910000D01*
X142351708Y-78947482D01*
X142310000Y-78971561D01*
X142310000Y-78014001D01*
X142174493Y-78035464D01*
X141955867Y-78106500D01*
X141955861Y-78106503D01*
X141751027Y-78210871D01*
X141565045Y-78345995D01*
X141565042Y-78345997D01*
X141402497Y-78508542D01*
X141402495Y-78508545D01*
X141267371Y-78694527D01*
X141163003Y-78899361D01*
X141163000Y-78899367D01*
X141091964Y-79117993D01*
X141078025Y-79206000D01*
X142075562Y-79206000D01*
X142051482Y-79247708D01*
X142014000Y-79387591D01*
X142014000Y-79532409D01*
X142051482Y-79672292D01*
X142075562Y-79714000D01*
X141078025Y-79714000D01*
X141091964Y-79802006D01*
X141163000Y-80020632D01*
X141163003Y-80020638D01*
X141267371Y-80225472D01*
X141392803Y-80398115D01*
X141416662Y-80464983D01*
X141400581Y-80534135D01*
X141349667Y-80583615D01*
X141334901Y-80590231D01*
X141317795Y-80596611D01*
X141317792Y-80596612D01*
X141200738Y-80684238D01*
X141113112Y-80801292D01*
X141113110Y-80801297D01*
X141062011Y-80938295D01*
X141062009Y-80938303D01*
X141055500Y-80998850D01*
X141055500Y-83001149D01*
X141062009Y-83061696D01*
X141062011Y-83061704D01*
X141113110Y-83198702D01*
X141113112Y-83198707D01*
X141200738Y-83315761D01*
X141317791Y-83403386D01*
X141317792Y-83403386D01*
X141317796Y-83403389D01*
X141325591Y-83406296D01*
X141382424Y-83448840D01*
X141407237Y-83515359D01*
X141392147Y-83584734D01*
X141383494Y-83598412D01*
X141273817Y-83749369D01*
X141166019Y-83960935D01*
X141166016Y-83960941D01*
X141092645Y-84186753D01*
X141055500Y-84421281D01*
X141055500Y-135325346D01*
X141035498Y-135393467D01*
X141018595Y-135414441D01*
X136249850Y-140183185D01*
X136187538Y-140217211D01*
X136116723Y-140212146D01*
X136059887Y-140169599D01*
X136050167Y-140154475D01*
X135911354Y-139900255D01*
X135911349Y-139900245D01*
X135806273Y-139736742D01*
X135660010Y-139509149D01*
X135381397Y-139136962D01*
X135076961Y-138785622D01*
X135076955Y-138785615D01*
X134996534Y-138705193D01*
X134996533Y-138705192D01*
X134972119Y-138680778D01*
X134972116Y-138680773D01*
X134825493Y-138534150D01*
X134825462Y-138534121D01*
X133429490Y-137138149D01*
X133429470Y-137138127D01*
X133343324Y-137051981D01*
X133339059Y-137047503D01*
X133115184Y-136800496D01*
X133107341Y-136790938D01*
X132910596Y-136525663D01*
X132903743Y-136515408D01*
X132733927Y-136232091D01*
X132728120Y-136221224D01*
X132586904Y-135922651D01*
X132582182Y-135911253D01*
X132470909Y-135600272D01*
X132467328Y-135588467D01*
X132387073Y-135268078D01*
X132384662Y-135255956D01*
X132336201Y-134929272D01*
X132334989Y-134916966D01*
X132318652Y-134584462D01*
X132318500Y-134578279D01*
X132318500Y-61879786D01*
X132318501Y-61879780D01*
X132318500Y-61813270D01*
X132318521Y-61813197D01*
X132318521Y-61761058D01*
X132318522Y-61761058D01*
X132318521Y-61528606D01*
X132285352Y-61064887D01*
X132285349Y-61064866D01*
X132285348Y-61064854D01*
X132219190Y-60604740D01*
X132219187Y-60604716D01*
X132120361Y-60150437D01*
X131989380Y-59704366D01*
X131826911Y-59268775D01*
X131826909Y-59268770D01*
X131633787Y-58845899D01*
X131633783Y-58845892D01*
X131633780Y-58845885D01*
X131410974Y-58437850D01*
X131410972Y-58437847D01*
X131410972Y-58437846D01*
X131299377Y-58264203D01*
X131159626Y-58046749D01*
X130881017Y-57674576D01*
X130576569Y-57323226D01*
X130496154Y-57242812D01*
X130496154Y-57242811D01*
X130496153Y-57242811D01*
X122071490Y-48818149D01*
X122071470Y-48818127D01*
X121985324Y-48731981D01*
X121981059Y-48727503D01*
X121757184Y-48480496D01*
X121749341Y-48470938D01*
X121552596Y-48205663D01*
X121545743Y-48195408D01*
X121375927Y-47912091D01*
X121370120Y-47901224D01*
X121228904Y-47602651D01*
X121224182Y-47591253D01*
X121112909Y-47280272D01*
X121109328Y-47268467D01*
X121029073Y-46948078D01*
X121026662Y-46935956D01*
X120978201Y-46609272D01*
X120976989Y-46596966D01*
X120960652Y-46264462D01*
X120960500Y-46258279D01*
X120960500Y-44471962D01*
X120977381Y-44408962D01*
X121085971Y-44220879D01*
X121184999Y-43968559D01*
X121245315Y-43704299D01*
X121265571Y-43434000D01*
X121263772Y-43410000D01*
X125216429Y-43410000D01*
X125236685Y-43680302D01*
X125297001Y-43944560D01*
X125297002Y-43944562D01*
X125396027Y-44196875D01*
X125396030Y-44196883D01*
X125531554Y-44431617D01*
X125531556Y-44431620D01*
X125531557Y-44431621D01*
X125563728Y-44471962D01*
X125700561Y-44643546D01*
X125847106Y-44779518D01*
X125899257Y-44827907D01*
X125899263Y-44827911D01*
X126123205Y-44980593D01*
X126123212Y-44980597D01*
X126123215Y-44980599D01*
X126264003Y-45048399D01*
X126367423Y-45098204D01*
X126367436Y-45098209D01*
X126626431Y-45178098D01*
X126626433Y-45178098D01*
X126626442Y-45178101D01*
X126894472Y-45218500D01*
X126894476Y-45218500D01*
X127165524Y-45218500D01*
X127165528Y-45218500D01*
X127433558Y-45178101D01*
X127433568Y-45178098D01*
X127692563Y-45098209D01*
X127692565Y-45098207D01*
X127692572Y-45098206D01*
X127692577Y-45098203D01*
X127692581Y-45098202D01*
X127936780Y-44980602D01*
X127936780Y-44980601D01*
X127936786Y-44980599D01*
X128160743Y-44827907D01*
X128359442Y-44643542D01*
X128528443Y-44431621D01*
X128650115Y-44220879D01*
X128663969Y-44196883D01*
X128663971Y-44196879D01*
X128762999Y-43944559D01*
X128823315Y-43680299D01*
X128843571Y-43410000D01*
X128823986Y-43148649D01*
X134891500Y-43148649D01*
X134898009Y-43209196D01*
X134898011Y-43209204D01*
X134949110Y-43346202D01*
X134949112Y-43346207D01*
X135036738Y-43463261D01*
X135153792Y-43550887D01*
X135153794Y-43550888D01*
X135153796Y-43550889D01*
X135212875Y-43572924D01*
X135290795Y-43601988D01*
X135290803Y-43601990D01*
X135351350Y-43608499D01*
X135351355Y-43608499D01*
X135351362Y-43608500D01*
X135351368Y-43608500D01*
X137648632Y-43608500D01*
X137648638Y-43608500D01*
X137648645Y-43608499D01*
X137648649Y-43608499D01*
X137709196Y-43601990D01*
X137709199Y-43601989D01*
X137709201Y-43601989D01*
X137846204Y-43550889D01*
X137868091Y-43534505D01*
X137963261Y-43463261D01*
X138050887Y-43346207D01*
X138050887Y-43346206D01*
X138050889Y-43346204D01*
X138101989Y-43209201D01*
X138108500Y-43148638D01*
X138108500Y-42000000D01*
X138736526Y-42000000D01*
X138750413Y-42176453D01*
X138756391Y-42252402D01*
X138815494Y-42498589D01*
X138815495Y-42498591D01*
X138912384Y-42732502D01*
X139044672Y-42948376D01*
X139209102Y-43140898D01*
X139401624Y-43305328D01*
X139617498Y-43437616D01*
X139851409Y-43534505D01*
X140097597Y-43593609D01*
X140350000Y-43613474D01*
X140602403Y-43593609D01*
X140848591Y-43534505D01*
X141082502Y-43437616D01*
X141298376Y-43305328D01*
X141490898Y-43140898D01*
X141655328Y-42948376D01*
X141787616Y-42732502D01*
X141884505Y-42498591D01*
X141943609Y-42252403D01*
X141963474Y-42000000D01*
X142586526Y-42000000D01*
X142600413Y-42176453D01*
X142606391Y-42252402D01*
X142665494Y-42498589D01*
X142665495Y-42498591D01*
X142762384Y-42732502D01*
X142894672Y-42948376D01*
X143059102Y-43140898D01*
X143251624Y-43305328D01*
X143467498Y-43437616D01*
X143701409Y-43534505D01*
X143947597Y-43593609D01*
X144200000Y-43613474D01*
X144452403Y-43593609D01*
X144698591Y-43534505D01*
X144932502Y-43437616D01*
X145148376Y-43305328D01*
X145340898Y-43140898D01*
X145505328Y-42948376D01*
X145637616Y-42732502D01*
X145734505Y-42498591D01*
X145793609Y-42252403D01*
X145813474Y-42000000D01*
X146437028Y-42000000D01*
X146456886Y-42252323D01*
X146515971Y-42498434D01*
X146612830Y-42732272D01*
X146744177Y-42946611D01*
X146744178Y-42946611D01*
X147484192Y-42206597D01*
X147490889Y-42231591D01*
X147569881Y-42368408D01*
X147681592Y-42480119D01*
X147818409Y-42559111D01*
X147843400Y-42565807D01*
X147103387Y-43305820D01*
X147103387Y-43305822D01*
X147317727Y-43437169D01*
X147551565Y-43534028D01*
X147797676Y-43593113D01*
X148050000Y-43612971D01*
X148302323Y-43593113D01*
X148548434Y-43534028D01*
X148782277Y-43437167D01*
X148996611Y-43305822D01*
X148996611Y-43305820D01*
X148256598Y-42565807D01*
X148281591Y-42559111D01*
X148418408Y-42480119D01*
X148530119Y-42368408D01*
X148609111Y-42231591D01*
X148615807Y-42206598D01*
X149355820Y-42946611D01*
X149355822Y-42946611D01*
X149487167Y-42732277D01*
X149584028Y-42498434D01*
X149643113Y-42252323D01*
X149662971Y-42000000D01*
X149643113Y-41747676D01*
X149584028Y-41501565D01*
X149487169Y-41267727D01*
X149355822Y-41053387D01*
X149355820Y-41053387D01*
X148615807Y-41793400D01*
X148609111Y-41768409D01*
X148530119Y-41631592D01*
X148418408Y-41519881D01*
X148281591Y-41440889D01*
X148256598Y-41434192D01*
X148996611Y-40694178D01*
X148996611Y-40694177D01*
X148782272Y-40562830D01*
X148548434Y-40465971D01*
X148302323Y-40406886D01*
X148050000Y-40387028D01*
X147797676Y-40406886D01*
X147551565Y-40465971D01*
X147317727Y-40562830D01*
X147103387Y-40694176D01*
X147103387Y-40694178D01*
X147843401Y-41434192D01*
X147818409Y-41440889D01*
X147681592Y-41519881D01*
X147569881Y-41631592D01*
X147490889Y-41768409D01*
X147484192Y-41793401D01*
X146744178Y-41053387D01*
X146744176Y-41053387D01*
X146612830Y-41267727D01*
X146515971Y-41501565D01*
X146456886Y-41747676D01*
X146437028Y-42000000D01*
X145813474Y-42000000D01*
X145793609Y-41747597D01*
X145734505Y-41501409D01*
X145637616Y-41267498D01*
X145505328Y-41051624D01*
X145340898Y-40859102D01*
X145148376Y-40694672D01*
X144932502Y-40562384D01*
X144870590Y-40536739D01*
X144698589Y-40465494D01*
X144530177Y-40425062D01*
X144452403Y-40406391D01*
X144200000Y-40386526D01*
X143947597Y-40406391D01*
X143701410Y-40465494D01*
X143467499Y-40562383D01*
X143251625Y-40694671D01*
X143059102Y-40859102D01*
X142894671Y-41051625D01*
X142762383Y-41267499D01*
X142665494Y-41501410D01*
X142631766Y-41641901D01*
X142606391Y-41747597D01*
X142586526Y-42000000D01*
X141963474Y-42000000D01*
X141943609Y-41747597D01*
X141884505Y-41501409D01*
X141787616Y-41267498D01*
X141655328Y-41051624D01*
X141490898Y-40859102D01*
X141298376Y-40694672D01*
X141082502Y-40562384D01*
X141020590Y-40536739D01*
X140848589Y-40465494D01*
X140680177Y-40425062D01*
X140602403Y-40406391D01*
X140350000Y-40386526D01*
X140097597Y-40406391D01*
X139851410Y-40465494D01*
X139617499Y-40562383D01*
X139401625Y-40694671D01*
X139209102Y-40859102D01*
X139044671Y-41051625D01*
X138912383Y-41267499D01*
X138815494Y-41501410D01*
X138781766Y-41641901D01*
X138756391Y-41747597D01*
X138736526Y-42000000D01*
X138108500Y-42000000D01*
X138108500Y-40851362D01*
X138108499Y-40851350D01*
X138101990Y-40790803D01*
X138101988Y-40790795D01*
X138050889Y-40653797D01*
X138050887Y-40653792D01*
X137963261Y-40536738D01*
X137846207Y-40449112D01*
X137846202Y-40449110D01*
X137709204Y-40398011D01*
X137709196Y-40398009D01*
X137648649Y-40391500D01*
X137648638Y-40391500D01*
X135351362Y-40391500D01*
X135351350Y-40391500D01*
X135290803Y-40398009D01*
X135290795Y-40398011D01*
X135153797Y-40449110D01*
X135153792Y-40449112D01*
X135036738Y-40536738D01*
X134949112Y-40653792D01*
X134949110Y-40653797D01*
X134898011Y-40790795D01*
X134898009Y-40790803D01*
X134891500Y-40851350D01*
X134891500Y-43148649D01*
X128823986Y-43148649D01*
X128823315Y-43139701D01*
X128762999Y-42875441D01*
X128663971Y-42623121D01*
X128663970Y-42623120D01*
X128663969Y-42623116D01*
X128528445Y-42388382D01*
X128512516Y-42368408D01*
X128359442Y-42176458D01*
X128359441Y-42176457D01*
X128359438Y-42176453D01*
X128186608Y-42016092D01*
X128160743Y-41992093D01*
X127936786Y-41839401D01*
X127936783Y-41839400D01*
X127936781Y-41839398D01*
X127936780Y-41839397D01*
X127692581Y-41721797D01*
X127692563Y-41721790D01*
X127433568Y-41641901D01*
X127433560Y-41641899D01*
X127433558Y-41641899D01*
X127165528Y-41601500D01*
X126894472Y-41601500D01*
X126626442Y-41641899D01*
X126626440Y-41641899D01*
X126626431Y-41641901D01*
X126367436Y-41721790D01*
X126367423Y-41721795D01*
X126123212Y-41839402D01*
X126123205Y-41839406D01*
X125899263Y-41992088D01*
X125899251Y-41992098D01*
X125700561Y-42176453D01*
X125531554Y-42388382D01*
X125396030Y-42623116D01*
X125396027Y-42623124D01*
X125297002Y-42875437D01*
X125297001Y-42875439D01*
X125236685Y-43139697D01*
X125216429Y-43410000D01*
X121263772Y-43410000D01*
X121245315Y-43163701D01*
X121184999Y-42899441D01*
X121085971Y-42647121D01*
X121085970Y-42647120D01*
X121085969Y-42647116D01*
X120950445Y-42412382D01*
X120931303Y-42388379D01*
X120781442Y-42200458D01*
X120781441Y-42200457D01*
X120781438Y-42200453D01*
X120582748Y-42016098D01*
X120582742Y-42016092D01*
X120358787Y-41863402D01*
X120358786Y-41863401D01*
X120358783Y-41863400D01*
X120358781Y-41863398D01*
X120358780Y-41863397D01*
X120114581Y-41745797D01*
X120114563Y-41745790D01*
X119855568Y-41665901D01*
X119855560Y-41665899D01*
X119855558Y-41665899D01*
X119587528Y-41625500D01*
X119316472Y-41625500D01*
X119048442Y-41665899D01*
X119048440Y-41665899D01*
X119048431Y-41665901D01*
X118789436Y-41745790D01*
X118789423Y-41745795D01*
X118545212Y-41863402D01*
X118545205Y-41863406D01*
X118321263Y-42016088D01*
X118321251Y-42016098D01*
X118122561Y-42200453D01*
X117953554Y-42412382D01*
X117818030Y-42647116D01*
X117818027Y-42647124D01*
X117719002Y-42899437D01*
X117719001Y-42899439D01*
X117658685Y-43163697D01*
X117638429Y-43434000D01*
X116840000Y-43434000D01*
X116840000Y-32500006D01*
X125486540Y-32500006D01*
X125506357Y-32815007D01*
X125506359Y-32815024D01*
X125565504Y-33125067D01*
X125565507Y-33125080D01*
X125663039Y-33425254D01*
X125663044Y-33425266D01*
X125797438Y-33710869D01*
X125797440Y-33710872D01*
X125797443Y-33710878D01*
X125966562Y-33977368D01*
X126167763Y-34220578D01*
X126167766Y-34220580D01*
X126167767Y-34220582D01*
X126397860Y-34436654D01*
X126653221Y-34622184D01*
X126929821Y-34774247D01*
X127223298Y-34890443D01*
X127529025Y-34968940D01*
X127529033Y-34968941D01*
X127529032Y-34968941D01*
X127693129Y-34989670D01*
X127842179Y-35008500D01*
X127842183Y-35008500D01*
X128157817Y-35008500D01*
X128157821Y-35008500D01*
X128470975Y-34968940D01*
X128776702Y-34890443D01*
X129070179Y-34774247D01*
X129346779Y-34622184D01*
X129602140Y-34436654D01*
X129832233Y-34220582D01*
X130033432Y-33977375D01*
X130033434Y-33977370D01*
X130033437Y-33977368D01*
X130202556Y-33710878D01*
X130202562Y-33710869D01*
X130336956Y-33425266D01*
X130434495Y-33125072D01*
X130493641Y-32815020D01*
X130513460Y-32500006D01*
X141986540Y-32500006D01*
X142006357Y-32815007D01*
X142006359Y-32815024D01*
X142065504Y-33125067D01*
X142065507Y-33125080D01*
X142163039Y-33425254D01*
X142163044Y-33425266D01*
X142297438Y-33710869D01*
X142297440Y-33710872D01*
X142297443Y-33710878D01*
X142466562Y-33977368D01*
X142667763Y-34220578D01*
X142667766Y-34220580D01*
X142667767Y-34220582D01*
X142897860Y-34436654D01*
X143153221Y-34622184D01*
X143429821Y-34774247D01*
X143723298Y-34890443D01*
X144029025Y-34968940D01*
X144029033Y-34968941D01*
X144029032Y-34968941D01*
X144193129Y-34989670D01*
X144342179Y-35008500D01*
X144342183Y-35008500D01*
X144657817Y-35008500D01*
X144657821Y-35008500D01*
X144970975Y-34968940D01*
X145276702Y-34890443D01*
X145570179Y-34774247D01*
X145846779Y-34622184D01*
X146102140Y-34436654D01*
X146332233Y-34220582D01*
X146533432Y-33977375D01*
X146533434Y-33977370D01*
X146533437Y-33977368D01*
X146702556Y-33710878D01*
X146702562Y-33710869D01*
X146836956Y-33425266D01*
X146934495Y-33125072D01*
X146993641Y-32815020D01*
X147013460Y-32500000D01*
X146993641Y-32184980D01*
X146934495Y-31874928D01*
X146836956Y-31574734D01*
X146702562Y-31289131D01*
X146702556Y-31289121D01*
X146533437Y-31022631D01*
X146332236Y-30779421D01*
X146102139Y-30563345D01*
X145846781Y-30377817D01*
X145804385Y-30354509D01*
X145570179Y-30225753D01*
X145276702Y-30109557D01*
X144970975Y-30031060D01*
X144970970Y-30031059D01*
X144970965Y-30031058D01*
X144970967Y-30031058D01*
X144657835Y-29991501D01*
X144657824Y-29991500D01*
X144657821Y-29991500D01*
X144342179Y-29991500D01*
X144342176Y-29991500D01*
X144342164Y-29991501D01*
X144029033Y-30031058D01*
X143723301Y-30109556D01*
X143429821Y-30225753D01*
X143153218Y-30377817D01*
X142897861Y-30563345D01*
X142897860Y-30563345D01*
X142667763Y-30779421D01*
X142466562Y-31022631D01*
X142297443Y-31289121D01*
X142297436Y-31289135D01*
X142163044Y-31574732D01*
X142163039Y-31574745D01*
X142065507Y-31874919D01*
X142065504Y-31874932D01*
X142006359Y-32184975D01*
X142006357Y-32184992D01*
X141986540Y-32499993D01*
X141986540Y-32500006D01*
X130513460Y-32500006D01*
X130513460Y-32500000D01*
X130493641Y-32184980D01*
X130434495Y-31874928D01*
X130336956Y-31574734D01*
X130202562Y-31289131D01*
X130202556Y-31289121D01*
X130033437Y-31022631D01*
X129832236Y-30779421D01*
X129602139Y-30563345D01*
X129346781Y-30377817D01*
X129304385Y-30354509D01*
X129070179Y-30225753D01*
X128776702Y-30109557D01*
X128470975Y-30031060D01*
X128470970Y-30031059D01*
X128470965Y-30031058D01*
X128470967Y-30031058D01*
X128157835Y-29991501D01*
X128157824Y-29991500D01*
X128157821Y-29991500D01*
X127842179Y-29991500D01*
X127842176Y-29991500D01*
X127842164Y-29991501D01*
X127529033Y-30031058D01*
X127223301Y-30109556D01*
X126929821Y-30225753D01*
X126653218Y-30377817D01*
X126397861Y-30563345D01*
X126397860Y-30563345D01*
X126167763Y-30779421D01*
X125966562Y-31022631D01*
X125797443Y-31289121D01*
X125797436Y-31289135D01*
X125663044Y-31574732D01*
X125663039Y-31574745D01*
X125565507Y-31874919D01*
X125565504Y-31874932D01*
X125506359Y-32184975D01*
X125506357Y-32184992D01*
X125486540Y-32499993D01*
X125486540Y-32500006D01*
X116840000Y-32500006D01*
X116840000Y-28506082D01*
X116860002Y-28437961D01*
X116913658Y-28391468D01*
X116966079Y-28380082D01*
X162434084Y-28409917D01*
G37*
%TD.AperFunction*%
%TD*%
M02*
