%TF.GenerationSoftware,KiCad,Pcbnew,8.0.0*%
%TF.CreationDate,2025-04-20T03:08:19+02:00*%
%TF.ProjectId,LinearSaturn,4c696e65-6172-4536-9174-75726e2e6b69,rev?*%
%TF.SameCoordinates,Original*%
%TF.FileFunction,Copper,L1,Top*%
%TF.FilePolarity,Positive*%
%FSLAX46Y46*%
G04 Gerber Fmt 4.6, Leading zero omitted, Abs format (unit mm)*
G04 Created by KiCad (PCBNEW 8.0.0) date 2025-04-20 03:08:19*
%MOMM*%
%LPD*%
G01*
G04 APERTURE LIST*
%ADD10C,0.300000*%
%TA.AperFunction,NonConductor*%
%ADD11C,0.300000*%
%TD*%
%TA.AperFunction,ComponentPad*%
%ADD12R,1.600000X1.600000*%
%TD*%
%TA.AperFunction,ComponentPad*%
%ADD13C,1.600000*%
%TD*%
%TA.AperFunction,ComponentPad*%
%ADD14O,2.000000X1.905000*%
%TD*%
%TA.AperFunction,ComponentPad*%
%ADD15C,2.600000*%
%TD*%
%TA.AperFunction,ComponentPad*%
%ADD16O,4.000000X4.000000*%
%TD*%
%TA.AperFunction,ComponentPad*%
%ADD17R,2.000000X1.905000*%
%TD*%
%TA.AperFunction,SMDPad,CuDef*%
%ADD18R,4.000000X4.000000*%
%TD*%
%TA.AperFunction,ComponentPad*%
%ADD19C,1.200000*%
%TD*%
%TA.AperFunction,SMDPad,CuDef*%
%ADD20R,4.600000X1.100000*%
%TD*%
%TA.AperFunction,SMDPad,CuDef*%
%ADD21R,9.400000X10.800000*%
%TD*%
%TA.AperFunction,ComponentPad*%
%ADD22R,2.200000X2.200000*%
%TD*%
%TA.AperFunction,ComponentPad*%
%ADD23C,2.200000*%
%TD*%
%TA.AperFunction,ViaPad*%
%ADD24C,0.800000*%
%TD*%
%TA.AperFunction,Conductor*%
%ADD25C,2.000000*%
%TD*%
%TA.AperFunction,Conductor*%
%ADD26C,1.000000*%
%TD*%
%TA.AperFunction,Conductor*%
%ADD27C,1.250000*%
%TD*%
%TA.AperFunction,Conductor*%
%ADD28C,0.250000*%
%TD*%
G04 APERTURE END LIST*
D10*
D11*
X136625939Y-172800828D02*
X136911653Y-172800828D01*
X136911653Y-172800828D02*
X137054510Y-172729400D01*
X137054510Y-172729400D02*
X137125939Y-172657971D01*
X137125939Y-172657971D02*
X137268796Y-172443685D01*
X137268796Y-172443685D02*
X137340225Y-172157971D01*
X137340225Y-172157971D02*
X137340225Y-171586542D01*
X137340225Y-171586542D02*
X137268796Y-171443685D01*
X137268796Y-171443685D02*
X137197368Y-171372257D01*
X137197368Y-171372257D02*
X137054510Y-171300828D01*
X137054510Y-171300828D02*
X136768796Y-171300828D01*
X136768796Y-171300828D02*
X136625939Y-171372257D01*
X136625939Y-171372257D02*
X136554510Y-171443685D01*
X136554510Y-171443685D02*
X136483082Y-171586542D01*
X136483082Y-171586542D02*
X136483082Y-171943685D01*
X136483082Y-171943685D02*
X136554510Y-172086542D01*
X136554510Y-172086542D02*
X136625939Y-172157971D01*
X136625939Y-172157971D02*
X136768796Y-172229400D01*
X136768796Y-172229400D02*
X137054510Y-172229400D01*
X137054510Y-172229400D02*
X137197368Y-172157971D01*
X137197368Y-172157971D02*
X137268796Y-172086542D01*
X137268796Y-172086542D02*
X137340225Y-171943685D01*
X137840224Y-171800828D02*
X138197367Y-172800828D01*
X138197367Y-172800828D02*
X138554510Y-171800828D01*
X140268795Y-172800828D02*
X140268795Y-171300828D01*
X140983081Y-172800828D02*
X140983081Y-171300828D01*
X140983081Y-171300828D02*
X141840224Y-172800828D01*
X141840224Y-172800828D02*
X141840224Y-171300828D01*
D12*
%TO.P,25v 220uF,1*%
%TO.N,3.3v*%
X146050000Y-164338000D03*
D13*
%TO.P,25v 220uF,GND*%
%TO.N,GND*%
X142550000Y-164338000D03*
%TD*%
D14*
%TO.P,,3*%
%TO.N,N/C*%
X146024000Y-69144000D03*
%TD*%
D15*
%TO.P,,*%
%TO.N,*%
X154544000Y-146972000D03*
%TD*%
D16*
%TO.P,,2*%
%TO.N,N/C*%
X128000000Y-32500000D03*
%TD*%
D17*
%TO.P,,1*%
%TO.N,5v*%
X146024000Y-66604000D03*
%TD*%
D18*
%TO.P,DC IN,DC IN*%
%TO.N,N/C*%
X149326000Y-32500000D03*
%TD*%
D16*
%TO.P,,2*%
%TO.N,N/C*%
X144500000Y-32500000D03*
%TD*%
D19*
%TO.P,50v 0.1uF,*%
%TO.N,GND*%
X144050000Y-150622000D03*
%TO.P,50v 0.1uF,1*%
%TO.N,5v*%
X146050000Y-150622000D03*
%TD*%
D15*
%TO.P,,*%
%TO.N,GND*%
X154544000Y-159164000D03*
%TD*%
D13*
%TO.P,35v 100uF,*%
%TO.N,GND*%
X132810379Y-143256000D03*
D12*
%TO.P,35v 100uF,1*%
%TO.N,N/C*%
X135310379Y-143256000D03*
%TD*%
D15*
%TO.P,,*%
%TO.N,5v*%
X154544000Y-151036000D03*
%TD*%
D20*
%TO.P,LM2940A 3.3v TO263-3,*%
%TO.N,*%
X147133000Y-174498000D03*
D21*
X156283000Y-174498000D03*
D20*
%TO.P,LM2940A 3.3v TO263-3,1*%
%TO.N,N/C*%
X147133000Y-171958000D03*
%TO.P,LM2940A 3.3v TO263-3,3*%
%TO.N,3.3v*%
X147133000Y-177038000D03*
%TO.P,LM2940A 3.3v TO263-3,9V IN (ALT)*%
%TO.N,N/C*%
X147083000Y-179648000D03*
%TD*%
D15*
%TO.P,,*%
%TO.N,GND*%
X154544000Y-163228000D03*
%TD*%
D13*
%TO.P,25v 220uF,*%
%TO.N,GND*%
X142424651Y-143002000D03*
D12*
%TO.P,25v 220uF,5v*%
%TO.N,5v*%
X145924651Y-143002000D03*
%TD*%
D19*
%TO.P,50v 0.1uF,*%
%TO.N,GND*%
X144000000Y-156972000D03*
%TO.P,50v 0.1uF,1*%
%TO.N,3.3v*%
X146000000Y-156972000D03*
%TD*%
D15*
%TO.P,,*%
%TO.N,3.3v*%
X154544000Y-155100000D03*
%TD*%
%TO.P,,1*%
%TO.N,N/C*%
X119452000Y-43434000D03*
%TD*%
D14*
%TO.P,,GND*%
%TO.N,GND*%
X146024000Y-64064000D03*
%TD*%
D22*
%TO.P,REF\u002A\u002A,1*%
%TO.N,N/C*%
X136500000Y-42000000D03*
D23*
%TO.P,REF\u002A\u002A,2*%
X140350000Y-42000000D03*
%TO.P,REF\u002A\u002A,3*%
X144200000Y-42000000D03*
%TO.P,REF\u002A\u002A,4*%
%TO.N,GND*%
X148050000Y-42000000D03*
%TD*%
D18*
%TO.P,DC IN,DC IN*%
%TO.N,N/C*%
X132826000Y-32500000D03*
%TD*%
D15*
%TO.P,,1*%
%TO.N,N/C*%
X127030000Y-43410000D03*
%TD*%
D24*
%TO.N,*%
X143764000Y-171958000D03*
%TO.N,GND*%
X158750000Y-41402000D03*
X160528000Y-43180000D03*
X140395000Y-175260000D03*
X156972000Y-43180000D03*
X160528000Y-41402000D03*
X156972000Y-36322000D03*
X158750000Y-43180000D03*
X141411000Y-175260000D03*
X139379000Y-175260000D03*
X140395000Y-173990000D03*
X142427000Y-175260000D03*
X143443000Y-173990000D03*
X142427000Y-173990000D03*
X160528000Y-36322000D03*
X156972000Y-39878000D03*
X158750000Y-36322000D03*
X160528000Y-38100000D03*
X141411000Y-173990000D03*
X139379000Y-173990000D03*
X156972000Y-38100000D03*
X156972000Y-41402000D03*
X160528000Y-39878000D03*
X143443000Y-175260000D03*
X158750000Y-38100000D03*
X158750000Y-39878000D03*
%TO.N,3.3v*%
X143764000Y-177038000D03*
%TD*%
D25*
%TO.N,*%
X128000000Y-32500000D02*
X132826000Y-32500000D01*
X135000000Y-172458000D02*
X135000000Y-179500000D01*
D26*
X151078000Y-146972000D02*
X151080000Y-146970000D01*
D25*
X140350000Y-35198000D02*
X140350000Y-42000000D01*
X135000000Y-179500000D02*
X146935000Y-179500000D01*
X132826000Y-32500000D02*
X137652000Y-32500000D01*
X127030000Y-43410000D02*
X128440000Y-42000000D01*
X144500000Y-32500000D02*
X144200000Y-32800000D01*
X128440000Y-42000000D02*
X136500000Y-42000000D01*
X144200000Y-32800000D02*
X144200000Y-42000000D01*
X144500000Y-32500000D02*
X149326000Y-32500000D01*
X146935000Y-179500000D02*
X147083000Y-179648000D01*
X137652000Y-32500000D02*
X140350000Y-35198000D01*
D26*
X151080000Y-146970000D02*
X154542000Y-146970000D01*
D25*
X143764000Y-171958000D02*
X135500000Y-171958000D01*
D26*
X139026379Y-146972000D02*
X151078000Y-146972000D01*
D27*
X143764000Y-171958000D02*
X147133000Y-171958000D01*
D25*
X135500000Y-171958000D02*
X135000000Y-172458000D01*
D28*
X154542000Y-146970000D02*
X154544000Y-146972000D01*
X144500000Y-41700000D02*
X144200000Y-42000000D01*
D26*
X135310379Y-143256000D02*
X139026379Y-146972000D01*
%TO.N,GND*%
X140395000Y-173990000D02*
X140395000Y-175260000D01*
X158750000Y-32512000D02*
X158750000Y-43180000D01*
X141411000Y-173990000D02*
X141411000Y-175260000D01*
D28*
X158750000Y-32512000D02*
X160528000Y-34290000D01*
D26*
X143323000Y-174685000D02*
X143443000Y-174565000D01*
X143443000Y-175260000D02*
X139379000Y-175260000D01*
X156972000Y-43180000D02*
X160528000Y-43180000D01*
X143443000Y-174565000D02*
X143443000Y-175260000D01*
X143951000Y-174498000D02*
X143443000Y-173990000D01*
X160528000Y-34290000D02*
X160528000Y-36322000D01*
X139379000Y-174685000D02*
X143323000Y-174685000D01*
X160528000Y-36322000D02*
X160528000Y-43180000D01*
X156972000Y-34290000D02*
X156972000Y-36322000D01*
X143443000Y-173990000D02*
X143443000Y-174565000D01*
X139379000Y-174685000D02*
X139379000Y-175260000D01*
X144205000Y-174498000D02*
X143443000Y-175260000D01*
X156972000Y-36322000D02*
X156972000Y-43180000D01*
X156972000Y-39878000D02*
X160528000Y-39878000D01*
X139379000Y-173990000D02*
X139379000Y-174685000D01*
D27*
X147066000Y-174498000D02*
X143951000Y-174498000D01*
D26*
X156972000Y-38100000D02*
X160528000Y-38100000D01*
X156972000Y-41402000D02*
X160528000Y-41402000D01*
D28*
X158750000Y-32512000D02*
X156972000Y-34290000D01*
D26*
X156972000Y-36322000D02*
X160528000Y-36322000D01*
X142427000Y-173990000D02*
X142427000Y-175260000D01*
X143443000Y-173990000D02*
X139379000Y-173990000D01*
D27*
%TO.N,3.3v*%
X143764000Y-177038000D02*
X147133000Y-177038000D01*
%TD*%
%TA.AperFunction,Conductor*%
%TO.N,GND*%
G36*
X160980203Y-28468002D02*
G01*
X161026696Y-28521658D01*
X161038065Y-28571900D01*
X161290000Y-43688000D01*
X156464000Y-43688000D01*
X156464000Y-28574000D01*
X156484002Y-28505879D01*
X156537658Y-28459386D01*
X156590000Y-28448000D01*
X160912082Y-28448000D01*
X160980203Y-28468002D01*
G37*
%TD.AperFunction*%
%TD*%
%TA.AperFunction,Conductor*%
%TO.N,GND*%
G36*
X161932139Y-28930028D02*
G01*
X161978656Y-28983662D01*
X161990066Y-29035989D01*
X162069933Y-179934928D01*
X162049967Y-180003060D01*
X161996336Y-180049581D01*
X161944932Y-180060991D01*
X161618499Y-180063579D01*
X161550222Y-180044118D01*
X161503305Y-179990832D01*
X161491500Y-179937583D01*
X161491500Y-169049367D01*
X161491499Y-169049350D01*
X161484990Y-168988803D01*
X161484988Y-168988795D01*
X161433889Y-168851797D01*
X161433887Y-168851792D01*
X161346261Y-168734738D01*
X161229207Y-168647112D01*
X161229202Y-168647110D01*
X161092204Y-168596011D01*
X161092196Y-168596009D01*
X161031649Y-168589500D01*
X161031638Y-168589500D01*
X151534362Y-168589500D01*
X151534350Y-168589500D01*
X151473803Y-168596009D01*
X151473795Y-168596011D01*
X151336797Y-168647110D01*
X151336792Y-168647112D01*
X151219738Y-168734738D01*
X151132112Y-168851792D01*
X151132110Y-168851797D01*
X151081011Y-168988795D01*
X151081009Y-168988803D01*
X151074500Y-169049350D01*
X151074500Y-179946649D01*
X151081009Y-180007196D01*
X151081011Y-180007204D01*
X151132110Y-180144202D01*
X151132112Y-180144207D01*
X151219738Y-180261261D01*
X151336792Y-180348887D01*
X151336794Y-180348888D01*
X151336796Y-180348889D01*
X151395875Y-180370924D01*
X151473795Y-180399988D01*
X151473803Y-180399990D01*
X151534350Y-180406499D01*
X151534355Y-180406499D01*
X151534362Y-180406500D01*
X151534368Y-180406500D01*
X151851351Y-180406500D01*
X151919472Y-180426502D01*
X151965965Y-180480158D01*
X151977347Y-180533348D01*
X151975616Y-180790182D01*
X151880842Y-194845066D01*
X151860381Y-194913050D01*
X151806413Y-194959180D01*
X151755064Y-194970216D01*
X117456253Y-195029780D01*
X117388097Y-195009896D01*
X117341511Y-194956321D01*
X117330034Y-194903748D01*
X117336181Y-172581914D01*
X133491499Y-172581914D01*
X133491500Y-172581939D01*
X133491500Y-179381278D01*
X133491500Y-179618722D01*
X133528644Y-179853241D01*
X133528645Y-179853246D01*
X133596146Y-180060991D01*
X133602018Y-180079063D01*
X133709815Y-180290627D01*
X133849380Y-180482722D01*
X133849382Y-180482724D01*
X133849384Y-180482727D01*
X134017272Y-180650615D01*
X134017275Y-180650617D01*
X134017278Y-180650620D01*
X134209373Y-180790185D01*
X134420937Y-180897982D01*
X134646759Y-180971356D01*
X134881278Y-181008500D01*
X146400125Y-181008500D01*
X146457326Y-181022232D01*
X146503937Y-181045982D01*
X146729759Y-181119357D01*
X146964278Y-181156501D01*
X146964281Y-181156501D01*
X147201719Y-181156501D01*
X147201722Y-181156501D01*
X147436241Y-181119357D01*
X147662063Y-181045982D01*
X147873627Y-180938185D01*
X148065722Y-180798620D01*
X148120938Y-180743403D01*
X148183248Y-180709380D01*
X148210032Y-180706500D01*
X149431632Y-180706500D01*
X149431638Y-180706500D01*
X149431645Y-180706499D01*
X149431649Y-180706499D01*
X149492196Y-180699990D01*
X149492199Y-180699989D01*
X149492201Y-180699989D01*
X149629204Y-180648889D01*
X149746261Y-180561261D01*
X149833887Y-180444207D01*
X149833887Y-180444206D01*
X149833889Y-180444204D01*
X149884989Y-180307201D01*
X149891500Y-180246638D01*
X149891500Y-179049362D01*
X149891499Y-179049350D01*
X149884990Y-178988803D01*
X149884988Y-178988795D01*
X149833889Y-178851797D01*
X149833887Y-178851792D01*
X149746261Y-178734738D01*
X149629207Y-178647112D01*
X149629202Y-178647110D01*
X149492204Y-178596011D01*
X149492196Y-178596009D01*
X149431649Y-178589500D01*
X149431638Y-178589500D01*
X148210031Y-178589500D01*
X148141910Y-178569498D01*
X148120936Y-178552595D01*
X148090030Y-178521689D01*
X148090010Y-178521667D01*
X147917727Y-178349384D01*
X147917724Y-178349382D01*
X147917722Y-178349380D01*
X147883388Y-178324435D01*
X147840035Y-178268214D01*
X147833960Y-178197478D01*
X147867091Y-178134686D01*
X147928911Y-178099775D01*
X147957450Y-178096500D01*
X149481632Y-178096500D01*
X149481638Y-178096500D01*
X149481645Y-178096499D01*
X149481649Y-178096499D01*
X149542196Y-178089990D01*
X149542199Y-178089989D01*
X149542201Y-178089989D01*
X149679204Y-178038889D01*
X149776081Y-177966368D01*
X149796261Y-177951261D01*
X149883887Y-177834207D01*
X149883887Y-177834206D01*
X149883889Y-177834204D01*
X149934989Y-177697201D01*
X149941500Y-177636638D01*
X149941500Y-176439362D01*
X149941499Y-176439350D01*
X149934990Y-176378803D01*
X149934988Y-176378795D01*
X149883889Y-176241797D01*
X149883887Y-176241792D01*
X149796261Y-176124738D01*
X149679207Y-176037112D01*
X149679202Y-176037110D01*
X149542204Y-175986011D01*
X149542196Y-175986009D01*
X149481649Y-175979500D01*
X149481638Y-175979500D01*
X147563312Y-175979500D01*
X147524376Y-175973333D01*
X147398433Y-175932412D01*
X147398436Y-175932412D01*
X147365625Y-175927215D01*
X147222208Y-175904500D01*
X143674792Y-175904500D01*
X143498571Y-175932411D01*
X143498565Y-175932412D01*
X143328891Y-175987542D01*
X143328885Y-175987545D01*
X143169913Y-176068546D01*
X143025571Y-176173417D01*
X143025568Y-176173419D01*
X142899419Y-176299568D01*
X142899417Y-176299571D01*
X142794546Y-176443913D01*
X142713545Y-176602885D01*
X142713542Y-176602891D01*
X142658412Y-176772565D01*
X142658411Y-176772570D01*
X142658411Y-176772571D01*
X142630500Y-176948792D01*
X142630500Y-177127208D01*
X142658411Y-177303429D01*
X142658412Y-177303434D01*
X142713542Y-177473108D01*
X142713544Y-177473113D01*
X142794544Y-177632083D01*
X142899415Y-177776426D01*
X142899417Y-177776428D01*
X142902632Y-177780193D01*
X142901833Y-177780874D01*
X142933419Y-177838717D01*
X142928354Y-177909532D01*
X142885807Y-177966368D01*
X142819287Y-177991179D01*
X142810298Y-177991500D01*
X136634500Y-177991500D01*
X136566379Y-177971498D01*
X136519886Y-177917842D01*
X136508500Y-177865500D01*
X136508500Y-175096649D01*
X144324500Y-175096649D01*
X144331009Y-175157196D01*
X144331011Y-175157204D01*
X144382110Y-175294202D01*
X144382112Y-175294207D01*
X144469738Y-175411261D01*
X144586792Y-175498887D01*
X144586794Y-175498888D01*
X144586796Y-175498889D01*
X144645875Y-175520924D01*
X144723795Y-175549988D01*
X144723803Y-175549990D01*
X144784350Y-175556499D01*
X144784355Y-175556499D01*
X144784362Y-175556500D01*
X144784368Y-175556500D01*
X149481632Y-175556500D01*
X149481638Y-175556500D01*
X149481645Y-175556499D01*
X149481649Y-175556499D01*
X149542196Y-175549990D01*
X149542199Y-175549989D01*
X149542201Y-175549989D01*
X149679204Y-175498889D01*
X149796261Y-175411261D01*
X149883889Y-175294204D01*
X149934989Y-175157201D01*
X149941500Y-175096638D01*
X149941500Y-173899362D01*
X149941499Y-173899350D01*
X149934990Y-173838803D01*
X149934988Y-173838795D01*
X149883889Y-173701797D01*
X149883887Y-173701792D01*
X149796261Y-173584738D01*
X149679207Y-173497112D01*
X149679202Y-173497110D01*
X149542204Y-173446011D01*
X149542196Y-173446009D01*
X149481649Y-173439500D01*
X149481638Y-173439500D01*
X144784362Y-173439500D01*
X144784350Y-173439500D01*
X144723803Y-173446009D01*
X144723799Y-173446010D01*
X144681528Y-173461777D01*
X144610712Y-173466841D01*
X144567663Y-173443334D01*
X144569016Y-173474869D01*
X144533226Y-173536185D01*
X144522221Y-173545450D01*
X144469738Y-173584739D01*
X144382112Y-173701792D01*
X144382110Y-173701797D01*
X144331011Y-173838795D01*
X144331009Y-173838803D01*
X144324500Y-173899350D01*
X144324500Y-175096649D01*
X136508500Y-175096649D01*
X136508500Y-173592853D01*
X136528502Y-173524732D01*
X136582158Y-173478239D01*
X136634500Y-173466853D01*
X142555509Y-173466853D01*
X142558793Y-173466500D01*
X143882719Y-173466500D01*
X143882722Y-173466500D01*
X144117241Y-173429356D01*
X144343063Y-173355982D01*
X144389510Y-173332316D01*
X144459282Y-173319212D01*
X144516386Y-173342387D01*
X144519441Y-173299688D01*
X144561988Y-173242852D01*
X144563377Y-173241827D01*
X144737164Y-173115563D01*
X144804032Y-173091705D01*
X144811225Y-173091500D01*
X147222205Y-173091500D01*
X147222208Y-173091500D01*
X147398429Y-173063589D01*
X147524376Y-173022667D01*
X147563312Y-173016500D01*
X149481632Y-173016500D01*
X149481638Y-173016500D01*
X149481645Y-173016499D01*
X149481649Y-173016499D01*
X149542196Y-173009990D01*
X149542199Y-173009989D01*
X149542201Y-173009989D01*
X149679204Y-172958889D01*
X149796261Y-172871261D01*
X149883889Y-172754204D01*
X149934989Y-172617201D01*
X149941500Y-172556638D01*
X149941500Y-171359362D01*
X149935912Y-171307380D01*
X149934990Y-171298803D01*
X149934988Y-171298795D01*
X149883889Y-171161797D01*
X149883887Y-171161792D01*
X149796261Y-171044738D01*
X149679207Y-170957112D01*
X149679202Y-170957110D01*
X149542204Y-170906011D01*
X149542196Y-170906009D01*
X149481649Y-170899500D01*
X149481638Y-170899500D01*
X147563312Y-170899500D01*
X147524376Y-170893333D01*
X147398433Y-170852412D01*
X147398436Y-170852412D01*
X147365625Y-170847215D01*
X147222208Y-170824500D01*
X147222205Y-170824500D01*
X144811225Y-170824500D01*
X144743104Y-170804498D01*
X144737164Y-170800436D01*
X144554630Y-170667817D01*
X144554629Y-170667816D01*
X144554627Y-170667815D01*
X144343063Y-170560018D01*
X144343060Y-170560017D01*
X144343058Y-170560016D01*
X144117246Y-170486645D01*
X144117242Y-170486644D01*
X144117241Y-170486644D01*
X143882722Y-170449500D01*
X143882719Y-170449500D01*
X135623939Y-170449500D01*
X135623915Y-170449499D01*
X135618722Y-170449499D01*
X135381278Y-170449499D01*
X135146759Y-170486644D01*
X135146757Y-170486644D01*
X135146754Y-170486645D01*
X134920941Y-170560016D01*
X134920935Y-170560019D01*
X134709369Y-170667817D01*
X134517277Y-170807380D01*
X134472247Y-170852411D01*
X134349380Y-170975278D01*
X134349377Y-170975281D01*
X134017281Y-171307377D01*
X134017278Y-171307380D01*
X133965308Y-171359350D01*
X133849380Y-171475277D01*
X133755307Y-171604759D01*
X133709817Y-171667369D01*
X133602019Y-171878935D01*
X133602016Y-171878941D01*
X133528645Y-172104754D01*
X133491499Y-172339281D01*
X133491499Y-172581914D01*
X117336181Y-172581914D01*
X117338451Y-164338000D01*
X141237004Y-164338000D01*
X141256951Y-164566002D01*
X141316186Y-164787068D01*
X141316188Y-164787073D01*
X141412913Y-164994501D01*
X141462899Y-165065888D01*
X142150000Y-164378788D01*
X142150000Y-164390661D01*
X142177259Y-164492394D01*
X142229920Y-164583606D01*
X142304394Y-164658080D01*
X142395606Y-164710741D01*
X142497339Y-164738000D01*
X142509210Y-164738000D01*
X141822110Y-165425098D01*
X141822110Y-165425100D01*
X141893498Y-165475086D01*
X142100926Y-165571811D01*
X142100931Y-165571813D01*
X142321999Y-165631048D01*
X142321995Y-165631048D01*
X142550000Y-165650995D01*
X142778002Y-165631048D01*
X142999068Y-165571813D01*
X142999073Y-165571811D01*
X143206497Y-165475088D01*
X143277888Y-165425099D01*
X143277888Y-165425097D01*
X143039440Y-165186649D01*
X144741500Y-165186649D01*
X144748009Y-165247196D01*
X144748011Y-165247204D01*
X144799110Y-165384202D01*
X144799112Y-165384207D01*
X144886738Y-165501261D01*
X145003792Y-165588887D01*
X145003794Y-165588888D01*
X145003796Y-165588889D01*
X145062875Y-165610924D01*
X145140795Y-165639988D01*
X145140803Y-165639990D01*
X145201350Y-165646499D01*
X145201355Y-165646499D01*
X145201362Y-165646500D01*
X145201368Y-165646500D01*
X146898632Y-165646500D01*
X146898638Y-165646500D01*
X146898645Y-165646499D01*
X146898649Y-165646499D01*
X146959196Y-165639990D01*
X146959199Y-165639989D01*
X146959201Y-165639989D01*
X147096204Y-165588889D01*
X147119018Y-165571811D01*
X147213261Y-165501261D01*
X147300887Y-165384207D01*
X147300887Y-165384206D01*
X147300889Y-165384204D01*
X147351989Y-165247201D01*
X147358500Y-165186638D01*
X147358500Y-163489362D01*
X147358094Y-163485584D01*
X147351990Y-163428803D01*
X147351988Y-163428795D01*
X147300889Y-163291797D01*
X147300887Y-163291792D01*
X147253133Y-163228000D01*
X152730930Y-163228000D01*
X152751180Y-163498227D01*
X152811480Y-163762413D01*
X152811481Y-163762416D01*
X152910480Y-164014664D01*
X153045968Y-164249335D01*
X153098092Y-164314696D01*
X153098093Y-164314696D01*
X153605328Y-163807460D01*
X153704967Y-163944602D01*
X153827398Y-164067033D01*
X153964537Y-164166670D01*
X153456455Y-164674752D01*
X153456455Y-164674753D01*
X153637469Y-164798167D01*
X153637470Y-164798168D01*
X153881602Y-164915735D01*
X154140547Y-164995611D01*
X154140555Y-164995612D01*
X154408513Y-165036000D01*
X154679487Y-165036000D01*
X154947444Y-164995612D01*
X154947452Y-164995611D01*
X155206397Y-164915735D01*
X155450529Y-164798168D01*
X155450530Y-164798167D01*
X155631544Y-164674753D01*
X155123461Y-164166670D01*
X155260602Y-164067033D01*
X155383033Y-163944602D01*
X155482670Y-163807461D01*
X155989905Y-164314696D01*
X156022584Y-164312861D01*
X156091720Y-164329012D01*
X156129611Y-164361958D01*
X156197735Y-164450738D01*
X156197739Y-164450742D01*
X156197744Y-164450748D01*
X156369251Y-164622255D01*
X156369256Y-164622259D01*
X156369262Y-164622265D01*
X156561711Y-164769936D01*
X156561714Y-164769938D01*
X156771775Y-164891217D01*
X156771779Y-164891218D01*
X156771788Y-164891224D01*
X156995900Y-164984054D01*
X157230211Y-165046838D01*
X157230215Y-165046838D01*
X157230217Y-165046839D01*
X157292202Y-165054999D01*
X157470712Y-165078500D01*
X157470719Y-165078500D01*
X157713281Y-165078500D01*
X157713288Y-165078500D01*
X157930637Y-165049885D01*
X157953782Y-165046839D01*
X157953782Y-165046838D01*
X157953789Y-165046838D01*
X158188100Y-164984054D01*
X158412212Y-164891224D01*
X158622289Y-164769936D01*
X158814738Y-164622265D01*
X158986265Y-164450738D01*
X159133936Y-164258289D01*
X159255224Y-164048212D01*
X159348054Y-163824100D01*
X159410838Y-163589789D01*
X159442500Y-163349288D01*
X159442500Y-163106712D01*
X159410838Y-162866211D01*
X159348054Y-162631900D01*
X159255224Y-162407788D01*
X159255218Y-162407779D01*
X159255217Y-162407775D01*
X159133938Y-162197714D01*
X159133936Y-162197711D01*
X158986265Y-162005262D01*
X158986259Y-162005256D01*
X158986255Y-162005251D01*
X158814748Y-161833744D01*
X158814742Y-161833739D01*
X158814738Y-161833735D01*
X158622289Y-161686064D01*
X158622288Y-161686063D01*
X158622285Y-161686061D01*
X158412224Y-161564782D01*
X158412216Y-161564778D01*
X158412212Y-161564776D01*
X158188100Y-161471946D01*
X158188097Y-161471945D01*
X158188095Y-161471944D01*
X157953782Y-161409160D01*
X157713290Y-161377500D01*
X157713288Y-161377500D01*
X157470712Y-161377500D01*
X157470709Y-161377500D01*
X157230217Y-161409160D01*
X156995904Y-161471944D01*
X156995900Y-161471946D01*
X156830966Y-161540264D01*
X156771786Y-161564777D01*
X156771775Y-161564782D01*
X156561714Y-161686061D01*
X156369262Y-161833735D01*
X156369251Y-161833744D01*
X156197744Y-162005251D01*
X156197727Y-162005271D01*
X156129613Y-162094039D01*
X156072275Y-162135906D01*
X156022587Y-162143137D01*
X155989906Y-162141301D01*
X155482669Y-162648537D01*
X155383033Y-162511398D01*
X155260602Y-162388967D01*
X155123460Y-162289329D01*
X155631543Y-161781246D01*
X155631543Y-161781244D01*
X155450537Y-161657836D01*
X155450529Y-161657831D01*
X155206397Y-161540264D01*
X154947452Y-161460388D01*
X154947444Y-161460387D01*
X154679487Y-161420000D01*
X154408513Y-161420000D01*
X154140555Y-161460387D01*
X154140547Y-161460388D01*
X153881602Y-161540264D01*
X153637470Y-161657831D01*
X153637462Y-161657836D01*
X153456455Y-161781244D01*
X153456455Y-161781246D01*
X153964538Y-162289329D01*
X153827398Y-162388967D01*
X153704967Y-162511398D01*
X153605329Y-162648538D01*
X153098093Y-162141302D01*
X153098091Y-162141302D01*
X153045968Y-162206664D01*
X152910480Y-162441335D01*
X152811481Y-162693583D01*
X152811480Y-162693586D01*
X152751180Y-162957772D01*
X152730930Y-163228000D01*
X147253133Y-163228000D01*
X147213261Y-163174738D01*
X147096207Y-163087112D01*
X147096202Y-163087110D01*
X146959204Y-163036011D01*
X146959196Y-163036009D01*
X146898649Y-163029500D01*
X146898638Y-163029500D01*
X145201362Y-163029500D01*
X145201350Y-163029500D01*
X145140803Y-163036009D01*
X145140795Y-163036011D01*
X145003797Y-163087110D01*
X145003792Y-163087112D01*
X144886738Y-163174738D01*
X144799112Y-163291792D01*
X144799110Y-163291797D01*
X144748011Y-163428795D01*
X144748009Y-163428803D01*
X144741500Y-163489350D01*
X144741500Y-165186649D01*
X143039440Y-165186649D01*
X142590791Y-164738000D01*
X142602661Y-164738000D01*
X142704394Y-164710741D01*
X142795606Y-164658080D01*
X142870080Y-164583606D01*
X142922741Y-164492394D01*
X142950000Y-164390661D01*
X142950000Y-164378791D01*
X143637097Y-165065888D01*
X143637099Y-165065888D01*
X143687088Y-164994497D01*
X143783811Y-164787073D01*
X143783813Y-164787068D01*
X143843048Y-164566002D01*
X143862995Y-164338000D01*
X143843048Y-164109997D01*
X143783813Y-163888931D01*
X143783811Y-163888926D01*
X143687086Y-163681498D01*
X143637100Y-163610110D01*
X143637098Y-163610110D01*
X142950000Y-164297208D01*
X142950000Y-164285339D01*
X142922741Y-164183606D01*
X142870080Y-164092394D01*
X142795606Y-164017920D01*
X142704394Y-163965259D01*
X142602661Y-163938000D01*
X142590790Y-163938000D01*
X143277888Y-163250899D01*
X143277888Y-163250898D01*
X143206501Y-163200913D01*
X142999073Y-163104188D01*
X142999068Y-163104186D01*
X142778000Y-163044951D01*
X142778004Y-163044951D01*
X142550000Y-163025004D01*
X142321997Y-163044951D01*
X142100931Y-163104186D01*
X142100926Y-163104188D01*
X141893500Y-163200913D01*
X141822109Y-163250900D01*
X142509209Y-163938000D01*
X142497339Y-163938000D01*
X142395606Y-163965259D01*
X142304394Y-164017920D01*
X142229920Y-164092394D01*
X142177259Y-164183606D01*
X142150000Y-164285339D01*
X142150000Y-164297209D01*
X141462900Y-163610109D01*
X141412913Y-163681500D01*
X141316188Y-163888926D01*
X141316186Y-163888931D01*
X141256951Y-164109997D01*
X141237004Y-164338000D01*
X117338451Y-164338000D01*
X117339876Y-159164000D01*
X152730930Y-159164000D01*
X152751180Y-159434227D01*
X152811480Y-159698413D01*
X152811481Y-159698416D01*
X152910480Y-159950664D01*
X153045968Y-160185335D01*
X153098092Y-160250696D01*
X153098093Y-160250696D01*
X153605328Y-159743460D01*
X153704967Y-159880602D01*
X153827398Y-160003033D01*
X153964537Y-160102670D01*
X153456455Y-160610752D01*
X153456455Y-160610753D01*
X153637469Y-160734167D01*
X153637470Y-160734168D01*
X153881602Y-160851735D01*
X154140547Y-160931611D01*
X154140555Y-160931612D01*
X154408513Y-160972000D01*
X154679487Y-160972000D01*
X154947444Y-160931612D01*
X154947452Y-160931611D01*
X155206397Y-160851735D01*
X155450529Y-160734168D01*
X155450530Y-160734167D01*
X155631544Y-160610753D01*
X155123461Y-160102670D01*
X155260602Y-160003033D01*
X155383033Y-159880602D01*
X155482670Y-159743461D01*
X155989905Y-160250696D01*
X156022584Y-160248861D01*
X156091720Y-160265012D01*
X156129611Y-160297958D01*
X156197735Y-160386738D01*
X156197739Y-160386742D01*
X156197744Y-160386748D01*
X156369251Y-160558255D01*
X156369256Y-160558259D01*
X156369262Y-160558265D01*
X156561711Y-160705936D01*
X156561714Y-160705938D01*
X156771775Y-160827217D01*
X156771779Y-160827218D01*
X156771788Y-160827224D01*
X156995900Y-160920054D01*
X157230211Y-160982838D01*
X157230215Y-160982838D01*
X157230217Y-160982839D01*
X157292202Y-160990999D01*
X157470712Y-161014500D01*
X157470719Y-161014500D01*
X157713281Y-161014500D01*
X157713288Y-161014500D01*
X157930637Y-160985885D01*
X157953782Y-160982839D01*
X157953782Y-160982838D01*
X157953789Y-160982838D01*
X158188100Y-160920054D01*
X158412212Y-160827224D01*
X158622289Y-160705936D01*
X158814738Y-160558265D01*
X158986265Y-160386738D01*
X159133936Y-160194289D01*
X159255224Y-159984212D01*
X159348054Y-159760100D01*
X159410838Y-159525789D01*
X159442500Y-159285288D01*
X159442500Y-159042712D01*
X159410838Y-158802211D01*
X159348054Y-158567900D01*
X159255224Y-158343788D01*
X159255218Y-158343779D01*
X159255217Y-158343775D01*
X159133938Y-158133714D01*
X159133936Y-158133711D01*
X158986265Y-157941262D01*
X158986259Y-157941256D01*
X158986255Y-157941251D01*
X158814748Y-157769744D01*
X158814742Y-157769739D01*
X158814738Y-157769735D01*
X158622289Y-157622064D01*
X158622288Y-157622063D01*
X158622285Y-157622061D01*
X158412224Y-157500782D01*
X158412216Y-157500778D01*
X158412212Y-157500776D01*
X158188100Y-157407946D01*
X158188097Y-157407945D01*
X158188095Y-157407944D01*
X157953782Y-157345160D01*
X157713290Y-157313500D01*
X157713288Y-157313500D01*
X157470712Y-157313500D01*
X157470709Y-157313500D01*
X157230217Y-157345160D01*
X156995904Y-157407944D01*
X156995900Y-157407946D01*
X156830966Y-157476264D01*
X156771786Y-157500777D01*
X156771775Y-157500782D01*
X156561714Y-157622061D01*
X156369262Y-157769735D01*
X156369251Y-157769744D01*
X156197744Y-157941251D01*
X156197727Y-157941271D01*
X156129613Y-158030039D01*
X156072275Y-158071906D01*
X156022587Y-158079137D01*
X155989906Y-158077301D01*
X155482669Y-158584537D01*
X155383033Y-158447398D01*
X155260602Y-158324967D01*
X155123460Y-158225329D01*
X155631543Y-157717246D01*
X155631543Y-157717244D01*
X155450537Y-157593836D01*
X155450529Y-157593831D01*
X155206397Y-157476264D01*
X154947452Y-157396388D01*
X154947444Y-157396387D01*
X154679487Y-157356000D01*
X154408513Y-157356000D01*
X154140555Y-157396387D01*
X154140547Y-157396388D01*
X153881602Y-157476264D01*
X153637470Y-157593831D01*
X153637462Y-157593836D01*
X153456455Y-157717244D01*
X153456455Y-157717246D01*
X153964538Y-158225329D01*
X153827398Y-158324967D01*
X153704967Y-158447398D01*
X153605329Y-158584538D01*
X153098093Y-158077302D01*
X153098091Y-158077302D01*
X153045968Y-158142664D01*
X152910480Y-158377335D01*
X152811481Y-158629583D01*
X152811480Y-158629586D01*
X152751180Y-158893772D01*
X152730930Y-159164000D01*
X117339876Y-159164000D01*
X117340220Y-157914214D01*
X143416994Y-157914214D01*
X143504007Y-157968090D01*
X143504014Y-157968093D01*
X143695474Y-158042266D01*
X143695477Y-158042267D01*
X143897331Y-158080000D01*
X144102669Y-158080000D01*
X144304522Y-158042267D01*
X144304525Y-158042266D01*
X144495988Y-157968092D01*
X144495997Y-157968087D01*
X144583005Y-157914214D01*
X144000001Y-157331210D01*
X144000000Y-157331210D01*
X143416994Y-157914214D01*
X117340220Y-157914214D01*
X117340480Y-156972004D01*
X142887253Y-156972004D01*
X142906199Y-157176461D01*
X142906199Y-157176465D01*
X142962391Y-157373962D01*
X142962394Y-157373970D01*
X143053922Y-157557785D01*
X143053925Y-157557789D01*
X143054387Y-157558400D01*
X143054388Y-157558400D01*
X143601293Y-157011496D01*
X143700000Y-157011496D01*
X143720444Y-157087796D01*
X143759940Y-157156205D01*
X143815795Y-157212060D01*
X143884204Y-157251556D01*
X143960504Y-157272000D01*
X144039496Y-157272000D01*
X144115796Y-157251556D01*
X144184205Y-157212060D01*
X144240060Y-157156205D01*
X144279556Y-157087796D01*
X144300000Y-157011496D01*
X144300000Y-156972001D01*
X144359210Y-156972001D01*
X144945609Y-157558400D01*
X144980375Y-157556016D01*
X145049705Y-157571310D01*
X145089547Y-157605789D01*
X145177297Y-157721990D01*
X145329116Y-157860391D01*
X145329118Y-157860392D01*
X145503782Y-157968540D01*
X145695345Y-158042751D01*
X145897282Y-158080500D01*
X145897285Y-158080500D01*
X146102715Y-158080500D01*
X146102718Y-158080500D01*
X146304655Y-158042751D01*
X146496218Y-157968540D01*
X146670882Y-157860392D01*
X146822701Y-157721991D01*
X146946503Y-157558050D01*
X146946504Y-157558046D01*
X146946506Y-157558045D01*
X147038070Y-157374160D01*
X147038069Y-157374160D01*
X147038074Y-157374152D01*
X147094294Y-157176559D01*
X147113249Y-156972000D01*
X147094294Y-156767441D01*
X147038125Y-156570029D01*
X147038076Y-156569855D01*
X147038075Y-156569854D01*
X147038074Y-156569848D01*
X147038070Y-156569839D01*
X146946506Y-156385954D01*
X146946502Y-156385949D01*
X146822702Y-156222009D01*
X146670883Y-156083608D01*
X146496223Y-155975463D01*
X146496222Y-155975462D01*
X146496218Y-155975460D01*
X146353636Y-155920224D01*
X146304656Y-155901249D01*
X146254170Y-155891811D01*
X146102718Y-155863500D01*
X145897282Y-155863500D01*
X145776119Y-155886149D01*
X145695343Y-155901249D01*
X145546921Y-155958748D01*
X145503782Y-155975460D01*
X145503781Y-155975460D01*
X145503780Y-155975461D01*
X145503776Y-155975463D01*
X145329116Y-156083608D01*
X145177297Y-156222009D01*
X145089538Y-156338223D01*
X145032525Y-156380530D01*
X144980317Y-156387992D01*
X144945611Y-156385597D01*
X144359210Y-156971999D01*
X144359210Y-156972001D01*
X144300000Y-156972001D01*
X144300000Y-156932504D01*
X144279556Y-156856204D01*
X144240060Y-156787795D01*
X144184205Y-156731940D01*
X144115796Y-156692444D01*
X144039496Y-156672000D01*
X143960504Y-156672000D01*
X143884204Y-156692444D01*
X143815795Y-156731940D01*
X143759940Y-156787795D01*
X143720444Y-156856204D01*
X143700000Y-156932504D01*
X143700000Y-157011496D01*
X143601293Y-157011496D01*
X143640790Y-156971999D01*
X143054389Y-156385598D01*
X143054387Y-156385598D01*
X143053923Y-156386213D01*
X142962394Y-156570029D01*
X142962391Y-156570037D01*
X142906199Y-156767534D01*
X142906199Y-156767538D01*
X142887253Y-156971995D01*
X142887253Y-156972004D01*
X117340480Y-156972004D01*
X117340740Y-156029784D01*
X143416993Y-156029784D01*
X143999999Y-156612790D01*
X144000000Y-156612790D01*
X144583005Y-156029783D01*
X144495999Y-155975913D01*
X144495987Y-155975907D01*
X144304525Y-155901733D01*
X144304522Y-155901732D01*
X144102669Y-155864000D01*
X143897331Y-155864000D01*
X143695477Y-155901732D01*
X143695474Y-155901733D01*
X143504004Y-155975910D01*
X143504000Y-155975912D01*
X143416993Y-156029783D01*
X143416993Y-156029784D01*
X117340740Y-156029784D01*
X117340996Y-155100000D01*
X152730429Y-155100000D01*
X152750685Y-155370302D01*
X152811001Y-155634560D01*
X152811002Y-155634562D01*
X152910027Y-155886875D01*
X152910030Y-155886883D01*
X153045554Y-156121617D01*
X153045556Y-156121620D01*
X153045557Y-156121621D01*
X153110648Y-156203243D01*
X153214561Y-156333546D01*
X153273241Y-156387992D01*
X153413257Y-156517907D01*
X153413263Y-156517911D01*
X153637205Y-156670593D01*
X153637212Y-156670597D01*
X153637215Y-156670599D01*
X153682577Y-156692444D01*
X153881423Y-156788204D01*
X153881436Y-156788209D01*
X154140431Y-156868098D01*
X154140433Y-156868098D01*
X154140442Y-156868101D01*
X154408472Y-156908500D01*
X154408476Y-156908500D01*
X154679524Y-156908500D01*
X154679528Y-156908500D01*
X154947558Y-156868101D01*
X154947568Y-156868098D01*
X155206563Y-156788209D01*
X155206565Y-156788207D01*
X155206572Y-156788206D01*
X155206577Y-156788203D01*
X155206581Y-156788202D01*
X155450780Y-156670602D01*
X155450780Y-156670601D01*
X155450786Y-156670599D01*
X155674743Y-156517907D01*
X155873442Y-156333542D01*
X155942514Y-156246927D01*
X156000625Y-156206140D01*
X156071562Y-156203243D01*
X156132804Y-156239159D01*
X156140982Y-156248776D01*
X156197734Y-156322737D01*
X156197735Y-156322738D01*
X156197744Y-156322748D01*
X156369251Y-156494255D01*
X156369256Y-156494259D01*
X156369262Y-156494265D01*
X156561711Y-156641936D01*
X156561714Y-156641938D01*
X156771775Y-156763217D01*
X156771779Y-156763218D01*
X156771788Y-156763224D01*
X156995900Y-156856054D01*
X157230211Y-156918838D01*
X157230215Y-156918838D01*
X157230217Y-156918839D01*
X157292202Y-156926999D01*
X157470712Y-156950500D01*
X157470719Y-156950500D01*
X157713281Y-156950500D01*
X157713288Y-156950500D01*
X157930637Y-156921885D01*
X157953782Y-156918839D01*
X157953782Y-156918838D01*
X157953789Y-156918838D01*
X158188100Y-156856054D01*
X158412212Y-156763224D01*
X158622289Y-156641936D01*
X158814738Y-156494265D01*
X158986265Y-156322738D01*
X159133936Y-156130289D01*
X159255224Y-155920212D01*
X159348054Y-155696100D01*
X159410838Y-155461789D01*
X159442500Y-155221288D01*
X159442500Y-154978712D01*
X159410838Y-154738211D01*
X159348054Y-154503900D01*
X159255224Y-154279788D01*
X159255218Y-154279779D01*
X159255217Y-154279775D01*
X159133938Y-154069714D01*
X159133936Y-154069711D01*
X158986265Y-153877262D01*
X158986259Y-153877256D01*
X158986255Y-153877251D01*
X158814748Y-153705744D01*
X158814742Y-153705739D01*
X158814738Y-153705735D01*
X158622289Y-153558064D01*
X158622288Y-153558063D01*
X158622285Y-153558061D01*
X158412224Y-153436782D01*
X158412216Y-153436778D01*
X158412212Y-153436776D01*
X158188100Y-153343946D01*
X158188097Y-153343945D01*
X158188095Y-153343944D01*
X157953782Y-153281160D01*
X157713290Y-153249500D01*
X157713288Y-153249500D01*
X157470712Y-153249500D01*
X157470709Y-153249500D01*
X157230217Y-153281160D01*
X156995904Y-153343944D01*
X156995900Y-153343946D01*
X156771786Y-153436777D01*
X156771775Y-153436782D01*
X156561714Y-153558061D01*
X156369262Y-153705735D01*
X156369251Y-153705744D01*
X156197744Y-153877251D01*
X156197732Y-153877264D01*
X156140986Y-153951217D01*
X156083647Y-153993084D01*
X156012776Y-153997305D01*
X155950874Y-153962540D01*
X155942513Y-153953071D01*
X155873442Y-153866457D01*
X155873439Y-153866455D01*
X155674748Y-153682098D01*
X155674742Y-153682092D01*
X155576736Y-153615273D01*
X155450786Y-153529401D01*
X155450783Y-153529400D01*
X155450781Y-153529398D01*
X155450780Y-153529397D01*
X155206581Y-153411797D01*
X155206563Y-153411790D01*
X154947568Y-153331901D01*
X154947560Y-153331899D01*
X154947558Y-153331899D01*
X154679528Y-153291500D01*
X154408472Y-153291500D01*
X154140442Y-153331899D01*
X154140440Y-153331899D01*
X154140431Y-153331901D01*
X153881436Y-153411790D01*
X153881423Y-153411795D01*
X153637212Y-153529402D01*
X153637205Y-153529406D01*
X153413263Y-153682088D01*
X153413251Y-153682098D01*
X153214561Y-153866453D01*
X153045554Y-154078382D01*
X152910030Y-154313116D01*
X152910027Y-154313124D01*
X152811002Y-154565437D01*
X152811001Y-154565439D01*
X152750685Y-154829697D01*
X152730429Y-155100000D01*
X117340996Y-155100000D01*
X117341970Y-151564214D01*
X143466994Y-151564214D01*
X143554007Y-151618090D01*
X143554014Y-151618093D01*
X143745474Y-151692266D01*
X143745477Y-151692267D01*
X143947331Y-151730000D01*
X144152669Y-151730000D01*
X144354522Y-151692267D01*
X144354525Y-151692266D01*
X144545988Y-151618092D01*
X144545997Y-151618087D01*
X144633005Y-151564214D01*
X144050001Y-150981210D01*
X144050000Y-150981210D01*
X143466994Y-151564214D01*
X117341970Y-151564214D01*
X117342229Y-150622004D01*
X142937253Y-150622004D01*
X142956199Y-150826461D01*
X142956199Y-150826465D01*
X143012391Y-151023962D01*
X143012394Y-151023970D01*
X143103922Y-151207785D01*
X143103925Y-151207789D01*
X143104387Y-151208400D01*
X143104388Y-151208400D01*
X143651293Y-150661496D01*
X143750000Y-150661496D01*
X143770444Y-150737796D01*
X143809940Y-150806205D01*
X143865795Y-150862060D01*
X143934204Y-150901556D01*
X144010504Y-150922000D01*
X144089496Y-150922000D01*
X144165796Y-150901556D01*
X144234205Y-150862060D01*
X144290060Y-150806205D01*
X144329556Y-150737796D01*
X144350000Y-150661496D01*
X144350000Y-150622001D01*
X144409210Y-150622001D01*
X144995609Y-151208400D01*
X145030375Y-151206016D01*
X145099705Y-151221310D01*
X145139547Y-151255789D01*
X145227297Y-151371990D01*
X145379116Y-151510391D01*
X145379118Y-151510392D01*
X145553782Y-151618540D01*
X145745345Y-151692751D01*
X145947282Y-151730500D01*
X145947285Y-151730500D01*
X146152715Y-151730500D01*
X146152718Y-151730500D01*
X146354655Y-151692751D01*
X146546218Y-151618540D01*
X146720882Y-151510392D01*
X146872701Y-151371991D01*
X146996503Y-151208050D01*
X146996504Y-151208046D01*
X146996506Y-151208045D01*
X147082174Y-151036000D01*
X152730429Y-151036000D01*
X152750685Y-151306302D01*
X152811001Y-151570560D01*
X152811002Y-151570562D01*
X152910027Y-151822875D01*
X152910030Y-151822883D01*
X153045554Y-152057617D01*
X153045556Y-152057620D01*
X153045557Y-152057621D01*
X153110648Y-152139243D01*
X153214561Y-152269546D01*
X153361106Y-152405518D01*
X153413257Y-152453907D01*
X153413263Y-152453911D01*
X153637205Y-152606593D01*
X153637212Y-152606597D01*
X153637215Y-152606599D01*
X153778003Y-152674399D01*
X153881423Y-152724204D01*
X153881436Y-152724209D01*
X154140431Y-152804098D01*
X154140433Y-152804098D01*
X154140442Y-152804101D01*
X154408472Y-152844500D01*
X154408476Y-152844500D01*
X154679524Y-152844500D01*
X154679528Y-152844500D01*
X154947558Y-152804101D01*
X154947568Y-152804098D01*
X155206563Y-152724209D01*
X155206565Y-152724207D01*
X155206572Y-152724206D01*
X155206577Y-152724203D01*
X155206581Y-152724202D01*
X155450780Y-152606602D01*
X155450780Y-152606601D01*
X155450786Y-152606599D01*
X155674743Y-152453907D01*
X155873442Y-152269542D01*
X155942514Y-152182927D01*
X156000625Y-152142140D01*
X156071562Y-152139243D01*
X156132804Y-152175159D01*
X156140982Y-152184776D01*
X156197734Y-152258737D01*
X156197735Y-152258738D01*
X156197744Y-152258748D01*
X156369251Y-152430255D01*
X156369256Y-152430259D01*
X156369262Y-152430265D01*
X156561711Y-152577936D01*
X156561714Y-152577938D01*
X156771775Y-152699217D01*
X156771779Y-152699218D01*
X156771788Y-152699224D01*
X156995900Y-152792054D01*
X157230211Y-152854838D01*
X157230215Y-152854838D01*
X157230217Y-152854839D01*
X157292202Y-152862999D01*
X157470712Y-152886500D01*
X157470719Y-152886500D01*
X157713281Y-152886500D01*
X157713288Y-152886500D01*
X157930637Y-152857885D01*
X157953782Y-152854839D01*
X157953782Y-152854838D01*
X157953789Y-152854838D01*
X158188100Y-152792054D01*
X158412212Y-152699224D01*
X158622289Y-152577936D01*
X158814738Y-152430265D01*
X158986265Y-152258738D01*
X159133936Y-152066289D01*
X159255224Y-151856212D01*
X159348054Y-151632100D01*
X159410838Y-151397789D01*
X159442500Y-151157288D01*
X159442500Y-150914712D01*
X159410838Y-150674211D01*
X159348054Y-150439900D01*
X159255224Y-150215788D01*
X159255218Y-150215779D01*
X159255217Y-150215775D01*
X159133938Y-150005714D01*
X159120517Y-149988223D01*
X158986265Y-149813262D01*
X158986259Y-149813256D01*
X158986255Y-149813251D01*
X158814748Y-149641744D01*
X158814742Y-149641739D01*
X158814738Y-149641735D01*
X158622289Y-149494064D01*
X158622288Y-149494063D01*
X158622285Y-149494061D01*
X158412224Y-149372782D01*
X158412216Y-149372778D01*
X158412212Y-149372776D01*
X158188100Y-149279946D01*
X158188097Y-149279945D01*
X158188095Y-149279944D01*
X157953782Y-149217160D01*
X157713290Y-149185500D01*
X157713288Y-149185500D01*
X157470712Y-149185500D01*
X157470709Y-149185500D01*
X157230217Y-149217160D01*
X156995904Y-149279944D01*
X156995900Y-149279946D01*
X156771786Y-149372777D01*
X156771775Y-149372782D01*
X156561714Y-149494061D01*
X156369262Y-149641735D01*
X156369251Y-149641744D01*
X156197744Y-149813251D01*
X156197732Y-149813264D01*
X156140986Y-149887217D01*
X156083647Y-149929084D01*
X156012776Y-149933305D01*
X155950874Y-149898540D01*
X155942513Y-149889071D01*
X155873442Y-149802457D01*
X155873439Y-149802455D01*
X155683170Y-149625912D01*
X155674743Y-149618093D01*
X155450786Y-149465401D01*
X155450783Y-149465400D01*
X155450781Y-149465398D01*
X155450780Y-149465397D01*
X155206581Y-149347797D01*
X155206563Y-149347790D01*
X154947568Y-149267901D01*
X154947560Y-149267899D01*
X154947558Y-149267899D01*
X154679528Y-149227500D01*
X154408472Y-149227500D01*
X154140442Y-149267899D01*
X154140440Y-149267899D01*
X154140431Y-149267901D01*
X153881436Y-149347790D01*
X153881423Y-149347795D01*
X153637212Y-149465402D01*
X153637205Y-149465406D01*
X153413263Y-149618088D01*
X153413251Y-149618098D01*
X153214561Y-149802453D01*
X153045554Y-150014382D01*
X152910030Y-150249116D01*
X152910027Y-150249124D01*
X152811002Y-150501437D01*
X152811001Y-150501439D01*
X152750685Y-150765697D01*
X152730429Y-151036000D01*
X147082174Y-151036000D01*
X147088070Y-151024160D01*
X147088069Y-151024160D01*
X147088074Y-151024152D01*
X147144294Y-150826559D01*
X147163249Y-150622000D01*
X147144294Y-150417441D01*
X147088125Y-150220029D01*
X147088076Y-150219855D01*
X147088075Y-150219854D01*
X147088074Y-150219848D01*
X147088070Y-150219839D01*
X146996506Y-150035954D01*
X146996502Y-150035949D01*
X146872702Y-149872009D01*
X146720883Y-149733608D01*
X146546223Y-149625463D01*
X146546222Y-149625462D01*
X146546218Y-149625460D01*
X146428867Y-149579998D01*
X146354656Y-149551249D01*
X146304170Y-149541811D01*
X146152718Y-149513500D01*
X145947282Y-149513500D01*
X145826119Y-149536149D01*
X145745343Y-149551249D01*
X145596921Y-149608748D01*
X145553782Y-149625460D01*
X145553781Y-149625460D01*
X145553780Y-149625461D01*
X145553776Y-149625463D01*
X145379116Y-149733608D01*
X145227297Y-149872009D01*
X145139538Y-149988223D01*
X145082525Y-150030530D01*
X145030317Y-150037992D01*
X144995611Y-150035597D01*
X144409210Y-150621999D01*
X144409210Y-150622001D01*
X144350000Y-150622001D01*
X144350000Y-150582504D01*
X144329556Y-150506204D01*
X144290060Y-150437795D01*
X144234205Y-150381940D01*
X144165796Y-150342444D01*
X144089496Y-150322000D01*
X144010504Y-150322000D01*
X143934204Y-150342444D01*
X143865795Y-150381940D01*
X143809940Y-150437795D01*
X143770444Y-150506204D01*
X143750000Y-150582504D01*
X143750000Y-150661496D01*
X143651293Y-150661496D01*
X143690790Y-150621999D01*
X143104389Y-150035598D01*
X143104387Y-150035598D01*
X143103923Y-150036213D01*
X143012394Y-150220029D01*
X143012391Y-150220037D01*
X142956199Y-150417534D01*
X142956199Y-150417538D01*
X142937253Y-150621995D01*
X142937253Y-150622004D01*
X117342229Y-150622004D01*
X117342488Y-149679784D01*
X143466993Y-149679784D01*
X144049999Y-150262790D01*
X144050000Y-150262790D01*
X144633005Y-149679783D01*
X144545999Y-149625913D01*
X144545987Y-149625907D01*
X144354525Y-149551733D01*
X144354522Y-149551732D01*
X144152669Y-149514000D01*
X143947331Y-149514000D01*
X143745477Y-149551732D01*
X143745474Y-149551733D01*
X143554004Y-149625910D01*
X143554000Y-149625912D01*
X143466993Y-149679783D01*
X143466993Y-149679784D01*
X117342488Y-149679784D01*
X117344257Y-143256000D01*
X131497383Y-143256000D01*
X131517330Y-143484002D01*
X131576565Y-143705068D01*
X131576567Y-143705073D01*
X131673292Y-143912501D01*
X131723278Y-143983888D01*
X132410379Y-143296788D01*
X132410379Y-143308661D01*
X132437638Y-143410394D01*
X132490299Y-143501606D01*
X132564773Y-143576080D01*
X132655985Y-143628741D01*
X132757718Y-143656000D01*
X132769589Y-143656000D01*
X132082489Y-144343098D01*
X132082489Y-144343100D01*
X132153877Y-144393086D01*
X132361305Y-144489811D01*
X132361310Y-144489813D01*
X132582378Y-144549048D01*
X132582374Y-144549048D01*
X132810379Y-144568995D01*
X133038381Y-144549048D01*
X133259447Y-144489813D01*
X133259452Y-144489811D01*
X133466876Y-144393088D01*
X133538267Y-144343099D01*
X133538267Y-144343097D01*
X132851170Y-143656000D01*
X132863040Y-143656000D01*
X132964773Y-143628741D01*
X133055985Y-143576080D01*
X133130459Y-143501606D01*
X133183120Y-143410394D01*
X133210379Y-143308661D01*
X133210379Y-143296791D01*
X133909155Y-143995567D01*
X133934725Y-144000705D01*
X133985719Y-144050103D01*
X134000720Y-144101368D01*
X134001518Y-144101283D01*
X134008388Y-144165196D01*
X134008390Y-144165204D01*
X134059489Y-144302202D01*
X134059491Y-144302207D01*
X134147117Y-144419261D01*
X134264171Y-144506887D01*
X134264173Y-144506888D01*
X134264175Y-144506889D01*
X134323254Y-144528924D01*
X134401174Y-144557988D01*
X134401182Y-144557990D01*
X134461729Y-144564499D01*
X134461734Y-144564499D01*
X134461741Y-144564500D01*
X135140455Y-144564500D01*
X135208576Y-144584502D01*
X135229549Y-144601404D01*
X138383498Y-147755354D01*
X138548676Y-147865722D01*
X138656188Y-147910254D01*
X138732210Y-147941744D01*
X138927050Y-147980500D01*
X138927051Y-147980500D01*
X151177328Y-147980500D01*
X151177329Y-147980500D01*
X151177329Y-147980499D01*
X151183493Y-147979893D01*
X151183513Y-147980104D01*
X151199795Y-147978500D01*
X152972821Y-147978500D01*
X153040942Y-147998502D01*
X153071329Y-148025938D01*
X153110648Y-148075243D01*
X153214557Y-148205542D01*
X153214560Y-148205544D01*
X153413257Y-148389907D01*
X153413263Y-148389911D01*
X153637205Y-148542593D01*
X153637212Y-148542597D01*
X153637215Y-148542599D01*
X153778003Y-148610399D01*
X153881423Y-148660204D01*
X153881436Y-148660209D01*
X154140431Y-148740098D01*
X154140433Y-148740098D01*
X154140442Y-148740101D01*
X154408472Y-148780500D01*
X154408476Y-148780500D01*
X154679524Y-148780500D01*
X154679528Y-148780500D01*
X154947558Y-148740101D01*
X154947568Y-148740098D01*
X155206563Y-148660209D01*
X155206565Y-148660207D01*
X155206572Y-148660206D01*
X155206577Y-148660203D01*
X155206581Y-148660202D01*
X155450780Y-148542602D01*
X155450780Y-148542601D01*
X155450786Y-148542599D01*
X155674743Y-148389907D01*
X155873442Y-148205542D01*
X155942514Y-148118927D01*
X156000625Y-148078140D01*
X156071562Y-148075243D01*
X156132804Y-148111159D01*
X156140982Y-148120776D01*
X156197734Y-148194737D01*
X156197735Y-148194738D01*
X156197744Y-148194748D01*
X156369251Y-148366255D01*
X156369256Y-148366259D01*
X156369262Y-148366265D01*
X156561711Y-148513936D01*
X156561714Y-148513938D01*
X156771775Y-148635217D01*
X156771779Y-148635218D01*
X156771788Y-148635224D01*
X156995900Y-148728054D01*
X157230211Y-148790838D01*
X157230215Y-148790838D01*
X157230217Y-148790839D01*
X157292202Y-148798999D01*
X157470712Y-148822500D01*
X157470719Y-148822500D01*
X157713281Y-148822500D01*
X157713288Y-148822500D01*
X157930637Y-148793885D01*
X157953782Y-148790839D01*
X157953782Y-148790838D01*
X157953789Y-148790838D01*
X158188100Y-148728054D01*
X158412212Y-148635224D01*
X158622289Y-148513936D01*
X158814738Y-148366265D01*
X158986265Y-148194738D01*
X159133936Y-148002289D01*
X159255224Y-147792212D01*
X159348054Y-147568100D01*
X159410838Y-147333789D01*
X159442500Y-147093288D01*
X159442500Y-146850712D01*
X159410838Y-146610211D01*
X159348054Y-146375900D01*
X159255224Y-146151788D01*
X159255218Y-146151779D01*
X159255217Y-146151775D01*
X159133938Y-145941714D01*
X159122337Y-145926595D01*
X158986265Y-145749262D01*
X158986259Y-145749256D01*
X158986255Y-145749251D01*
X158814748Y-145577744D01*
X158814742Y-145577739D01*
X158814738Y-145577735D01*
X158622289Y-145430064D01*
X158622288Y-145430063D01*
X158622285Y-145430061D01*
X158412224Y-145308782D01*
X158412216Y-145308778D01*
X158412212Y-145308776D01*
X158188100Y-145215946D01*
X158188097Y-145215945D01*
X158188095Y-145215944D01*
X157953782Y-145153160D01*
X157713290Y-145121500D01*
X157713288Y-145121500D01*
X157470712Y-145121500D01*
X157470709Y-145121500D01*
X157230217Y-145153160D01*
X156995904Y-145215944D01*
X156995900Y-145215946D01*
X156771786Y-145308777D01*
X156771775Y-145308782D01*
X156561714Y-145430061D01*
X156369262Y-145577735D01*
X156369251Y-145577744D01*
X156197744Y-145749251D01*
X156197732Y-145749264D01*
X156140986Y-145823217D01*
X156083647Y-145865084D01*
X156012776Y-145869305D01*
X155950874Y-145834540D01*
X155942513Y-145825071D01*
X155873442Y-145738457D01*
X155873439Y-145738455D01*
X155674748Y-145554098D01*
X155674742Y-145554092D01*
X155576736Y-145487273D01*
X155450786Y-145401401D01*
X155450783Y-145401400D01*
X155450781Y-145401398D01*
X155450780Y-145401397D01*
X155206581Y-145283797D01*
X155206563Y-145283790D01*
X154947568Y-145203901D01*
X154947560Y-145203899D01*
X154947558Y-145203899D01*
X154679528Y-145163500D01*
X154408472Y-145163500D01*
X154140442Y-145203899D01*
X154140440Y-145203899D01*
X154140431Y-145203901D01*
X153881436Y-145283790D01*
X153881423Y-145283795D01*
X153637212Y-145401402D01*
X153637205Y-145401406D01*
X153413263Y-145554088D01*
X153413251Y-145554098D01*
X153214561Y-145738453D01*
X153137935Y-145834540D01*
X153074519Y-145914060D01*
X153016410Y-145954848D01*
X152976010Y-145961500D01*
X150980671Y-145961500D01*
X150980670Y-145961500D01*
X150974507Y-145962107D01*
X150974486Y-145961895D01*
X150958205Y-145963500D01*
X139496304Y-145963500D01*
X139428183Y-145943498D01*
X139407209Y-145926595D01*
X136655784Y-143175170D01*
X136621758Y-143112858D01*
X136618879Y-143086075D01*
X136618879Y-143002000D01*
X141111655Y-143002000D01*
X141131602Y-143230002D01*
X141190837Y-143451068D01*
X141190839Y-143451073D01*
X141287564Y-143658501D01*
X141337550Y-143729888D01*
X142024651Y-143042788D01*
X142024651Y-143054661D01*
X142051910Y-143156394D01*
X142104571Y-143247606D01*
X142179045Y-143322080D01*
X142270257Y-143374741D01*
X142371990Y-143402000D01*
X142383861Y-143402000D01*
X141696761Y-144089098D01*
X141696761Y-144089100D01*
X141768149Y-144139086D01*
X141975577Y-144235811D01*
X141975582Y-144235813D01*
X142196650Y-144295048D01*
X142196646Y-144295048D01*
X142424651Y-144314995D01*
X142652653Y-144295048D01*
X142873719Y-144235813D01*
X142873724Y-144235811D01*
X143081148Y-144139088D01*
X143152539Y-144089099D01*
X143152539Y-144089097D01*
X142914091Y-143850649D01*
X144616151Y-143850649D01*
X144622660Y-143911196D01*
X144622662Y-143911204D01*
X144673761Y-144048202D01*
X144673763Y-144048207D01*
X144761389Y-144165261D01*
X144878443Y-144252887D01*
X144878445Y-144252888D01*
X144878447Y-144252889D01*
X144937526Y-144274924D01*
X145015446Y-144303988D01*
X145015454Y-144303990D01*
X145076001Y-144310499D01*
X145076006Y-144310499D01*
X145076013Y-144310500D01*
X145076019Y-144310500D01*
X146773283Y-144310500D01*
X146773289Y-144310500D01*
X146773296Y-144310499D01*
X146773300Y-144310499D01*
X146833847Y-144303990D01*
X146833850Y-144303989D01*
X146833852Y-144303989D01*
X146970855Y-144252889D01*
X146993669Y-144235811D01*
X147087912Y-144165261D01*
X147175538Y-144048207D01*
X147175538Y-144048206D01*
X147175540Y-144048204D01*
X147226640Y-143911201D01*
X147233151Y-143850638D01*
X147233151Y-142153362D01*
X147233150Y-142153350D01*
X147226641Y-142092803D01*
X147226639Y-142092795D01*
X147193933Y-142005110D01*
X147175540Y-141955796D01*
X147175539Y-141955794D01*
X147175538Y-141955792D01*
X147087912Y-141838738D01*
X146970858Y-141751112D01*
X146970853Y-141751110D01*
X146833855Y-141700011D01*
X146833847Y-141700009D01*
X146773300Y-141693500D01*
X146773289Y-141693500D01*
X145076013Y-141693500D01*
X145076001Y-141693500D01*
X145015454Y-141700009D01*
X145015446Y-141700011D01*
X144878448Y-141751110D01*
X144878443Y-141751112D01*
X144761389Y-141838738D01*
X144673763Y-141955792D01*
X144673761Y-141955797D01*
X144622662Y-142092795D01*
X144622660Y-142092803D01*
X144616151Y-142153350D01*
X144616151Y-143850649D01*
X142914091Y-143850649D01*
X142465442Y-143402000D01*
X142477312Y-143402000D01*
X142579045Y-143374741D01*
X142670257Y-143322080D01*
X142744731Y-143247606D01*
X142797392Y-143156394D01*
X142824651Y-143054661D01*
X142824651Y-143042791D01*
X143511748Y-143729888D01*
X143511750Y-143729888D01*
X143561739Y-143658497D01*
X143658462Y-143451073D01*
X143658464Y-143451068D01*
X143717699Y-143230002D01*
X143737646Y-143002000D01*
X143717699Y-142773997D01*
X143658464Y-142552931D01*
X143658462Y-142552926D01*
X143561737Y-142345498D01*
X143511751Y-142274110D01*
X143511749Y-142274110D01*
X142824651Y-142961208D01*
X142824651Y-142949339D01*
X142797392Y-142847606D01*
X142744731Y-142756394D01*
X142670257Y-142681920D01*
X142579045Y-142629259D01*
X142477312Y-142602000D01*
X142465441Y-142602000D01*
X143152539Y-141914899D01*
X143152539Y-141914898D01*
X143081152Y-141864913D01*
X142873724Y-141768188D01*
X142873719Y-141768186D01*
X142652651Y-141708951D01*
X142652655Y-141708951D01*
X142424651Y-141689004D01*
X142196648Y-141708951D01*
X141975582Y-141768186D01*
X141975577Y-141768188D01*
X141768151Y-141864913D01*
X141696760Y-141914900D01*
X142383860Y-142602000D01*
X142371990Y-142602000D01*
X142270257Y-142629259D01*
X142179045Y-142681920D01*
X142104571Y-142756394D01*
X142051910Y-142847606D01*
X142024651Y-142949339D01*
X142024651Y-142961209D01*
X141337551Y-142274109D01*
X141287564Y-142345500D01*
X141190839Y-142552926D01*
X141190837Y-142552931D01*
X141131602Y-142773997D01*
X141111655Y-143002000D01*
X136618879Y-143002000D01*
X136618879Y-142407367D01*
X136618878Y-142407350D01*
X136612369Y-142346803D01*
X136612367Y-142346795D01*
X136561268Y-142209797D01*
X136561266Y-142209792D01*
X136473640Y-142092738D01*
X136356586Y-142005112D01*
X136356581Y-142005110D01*
X136219583Y-141954011D01*
X136219575Y-141954009D01*
X136159028Y-141947500D01*
X136159017Y-141947500D01*
X134461741Y-141947500D01*
X134461729Y-141947500D01*
X134401182Y-141954009D01*
X134401174Y-141954011D01*
X134264176Y-142005110D01*
X134264171Y-142005112D01*
X134147117Y-142092738D01*
X134059491Y-142209792D01*
X134059489Y-142209797D01*
X134008390Y-142346795D01*
X134008388Y-142346803D01*
X134001518Y-142410717D01*
X134000482Y-142410605D01*
X133978291Y-142473474D01*
X133922216Y-142517018D01*
X133906261Y-142519326D01*
X133210379Y-143215208D01*
X133210379Y-143203339D01*
X133183120Y-143101606D01*
X133130459Y-143010394D01*
X133055985Y-142935920D01*
X132964773Y-142883259D01*
X132863040Y-142856000D01*
X132851169Y-142856000D01*
X133538267Y-142168899D01*
X133538267Y-142168898D01*
X133466880Y-142118913D01*
X133259452Y-142022188D01*
X133259447Y-142022186D01*
X133038379Y-141962951D01*
X133038383Y-141962951D01*
X132810379Y-141943004D01*
X132582376Y-141962951D01*
X132361310Y-142022186D01*
X132361305Y-142022188D01*
X132153879Y-142118913D01*
X132082488Y-142168900D01*
X132769588Y-142856000D01*
X132757718Y-142856000D01*
X132655985Y-142883259D01*
X132564773Y-142935920D01*
X132490299Y-143010394D01*
X132437638Y-143101606D01*
X132410379Y-143203339D01*
X132410379Y-143215209D01*
X131723279Y-142528109D01*
X131673292Y-142599500D01*
X131576567Y-142806926D01*
X131576565Y-142806931D01*
X131517330Y-143027997D01*
X131497383Y-143256000D01*
X117344257Y-143256000D01*
X117359965Y-86214942D01*
X117379986Y-86146830D01*
X117433654Y-86100352D01*
X117484939Y-86088984D01*
X122280000Y-86050000D01*
X122330000Y-78070000D01*
X117495949Y-78070000D01*
X117427828Y-78049998D01*
X117381335Y-77996342D01*
X117369949Y-77944051D01*
X117366414Y-69258980D01*
X144515500Y-69258980D01*
X144551474Y-69486120D01*
X144587006Y-69595473D01*
X144622538Y-69704829D01*
X144622539Y-69704832D01*
X144622541Y-69704836D01*
X144726940Y-69909731D01*
X144862111Y-70095778D01*
X144862113Y-70095780D01*
X144862115Y-70095783D01*
X145024716Y-70258384D01*
X145024719Y-70258386D01*
X145024722Y-70258389D01*
X145210769Y-70393560D01*
X145415671Y-70497962D01*
X145634382Y-70569026D01*
X145861517Y-70605000D01*
X145861519Y-70605000D01*
X146186481Y-70605000D01*
X146186483Y-70605000D01*
X146413618Y-70569026D01*
X146632329Y-70497962D01*
X146837231Y-70393560D01*
X147023278Y-70258389D01*
X147185889Y-70095778D01*
X147321060Y-69909731D01*
X147425462Y-69704829D01*
X147496526Y-69486118D01*
X147532500Y-69258983D01*
X147532500Y-69029017D01*
X147496526Y-68801882D01*
X147425462Y-68583171D01*
X147321060Y-68378269D01*
X147195682Y-68205701D01*
X147171825Y-68138835D01*
X147187905Y-68069684D01*
X147238819Y-68020204D01*
X147253581Y-68013589D01*
X147270204Y-68007389D01*
X147387261Y-67919761D01*
X147474889Y-67802704D01*
X147525989Y-67665701D01*
X147532500Y-67605138D01*
X147532500Y-65602862D01*
X147532499Y-65602850D01*
X147525990Y-65542303D01*
X147525988Y-65542295D01*
X147474889Y-65405297D01*
X147474887Y-65405292D01*
X147387261Y-65288238D01*
X147270208Y-65200613D01*
X147270205Y-65200612D01*
X147270204Y-65200611D01*
X147253096Y-65194230D01*
X147196264Y-65151685D01*
X147171453Y-65085164D01*
X147186545Y-65015790D01*
X147195196Y-65002115D01*
X147320628Y-64829472D01*
X147424996Y-64624638D01*
X147424999Y-64624632D01*
X147496035Y-64406006D01*
X147509975Y-64318000D01*
X146512438Y-64318000D01*
X146536518Y-64276292D01*
X146574000Y-64136409D01*
X146574000Y-63991591D01*
X146536518Y-63851708D01*
X146512438Y-63810000D01*
X147509974Y-63810000D01*
X147496035Y-63721993D01*
X147424999Y-63503367D01*
X147424996Y-63503361D01*
X147320628Y-63298527D01*
X147185504Y-63112545D01*
X147185502Y-63112542D01*
X147022957Y-62949997D01*
X147022954Y-62949995D01*
X146836972Y-62814871D01*
X146632138Y-62710503D01*
X146632132Y-62710500D01*
X146413506Y-62639464D01*
X146278000Y-62618001D01*
X146278000Y-63575561D01*
X146236292Y-63551482D01*
X146096409Y-63514000D01*
X145951591Y-63514000D01*
X145811708Y-63551482D01*
X145770000Y-63575561D01*
X145770000Y-62618001D01*
X145634493Y-62639464D01*
X145415867Y-62710500D01*
X145415861Y-62710503D01*
X145211027Y-62814871D01*
X145025045Y-62949995D01*
X145025042Y-62949997D01*
X144862497Y-63112542D01*
X144862495Y-63112545D01*
X144727371Y-63298527D01*
X144623003Y-63503361D01*
X144623000Y-63503367D01*
X144551964Y-63721993D01*
X144538025Y-63810000D01*
X145535562Y-63810000D01*
X145511482Y-63851708D01*
X145474000Y-63991591D01*
X145474000Y-64136409D01*
X145511482Y-64276292D01*
X145535562Y-64318000D01*
X144538025Y-64318000D01*
X144551964Y-64406006D01*
X144623000Y-64624632D01*
X144623003Y-64624638D01*
X144727371Y-64829472D01*
X144852803Y-65002115D01*
X144876662Y-65068983D01*
X144860581Y-65138135D01*
X144809667Y-65187615D01*
X144794901Y-65194231D01*
X144777795Y-65200611D01*
X144777792Y-65200612D01*
X144660738Y-65288238D01*
X144573112Y-65405292D01*
X144573110Y-65405297D01*
X144522011Y-65542295D01*
X144522009Y-65542303D01*
X144515500Y-65602850D01*
X144515500Y-67605149D01*
X144522009Y-67665696D01*
X144522011Y-67665704D01*
X144573110Y-67802702D01*
X144573112Y-67802707D01*
X144660738Y-67919761D01*
X144777791Y-68007386D01*
X144777792Y-68007386D01*
X144777796Y-68007389D01*
X144794415Y-68013587D01*
X144851248Y-68056133D01*
X144876059Y-68122654D01*
X144860967Y-68192028D01*
X144852316Y-68205703D01*
X144726940Y-68378268D01*
X144622541Y-68583163D01*
X144622538Y-68583172D01*
X144551474Y-68801879D01*
X144515500Y-69029019D01*
X144515500Y-69258980D01*
X117366414Y-69258980D01*
X117356542Y-45004593D01*
X117355903Y-43434000D01*
X117638429Y-43434000D01*
X117658685Y-43704302D01*
X117719001Y-43968560D01*
X117719002Y-43968562D01*
X117818027Y-44220875D01*
X117818030Y-44220883D01*
X117953554Y-44455617D01*
X118122561Y-44667546D01*
X118269106Y-44803518D01*
X118321257Y-44851907D01*
X118321263Y-44851911D01*
X118545205Y-45004593D01*
X118545212Y-45004597D01*
X118545215Y-45004599D01*
X118686003Y-45072399D01*
X118789423Y-45122204D01*
X118789436Y-45122209D01*
X119048431Y-45202098D01*
X119048433Y-45202098D01*
X119048442Y-45202101D01*
X119316472Y-45242500D01*
X119316476Y-45242500D01*
X119587524Y-45242500D01*
X119587528Y-45242500D01*
X119855558Y-45202101D01*
X119855568Y-45202098D01*
X120114563Y-45122209D01*
X120114565Y-45122207D01*
X120114572Y-45122206D01*
X120114577Y-45122203D01*
X120114581Y-45122202D01*
X120358780Y-45004602D01*
X120358780Y-45004601D01*
X120358786Y-45004599D01*
X120582743Y-44851907D01*
X120781442Y-44667542D01*
X120950443Y-44455621D01*
X121085971Y-44220879D01*
X121184999Y-43968559D01*
X121245315Y-43704299D01*
X121265571Y-43434000D01*
X121263772Y-43410000D01*
X125216429Y-43410000D01*
X125236685Y-43680302D01*
X125297001Y-43944560D01*
X125297002Y-43944562D01*
X125396027Y-44196875D01*
X125396030Y-44196883D01*
X125531554Y-44431617D01*
X125700561Y-44643546D01*
X125847106Y-44779518D01*
X125899257Y-44827907D01*
X125899263Y-44827911D01*
X126123205Y-44980593D01*
X126123212Y-44980597D01*
X126123215Y-44980599D01*
X126173056Y-45004601D01*
X126367423Y-45098204D01*
X126367436Y-45098209D01*
X126626431Y-45178098D01*
X126626433Y-45178098D01*
X126626442Y-45178101D01*
X126894472Y-45218500D01*
X126894476Y-45218500D01*
X127165524Y-45218500D01*
X127165528Y-45218500D01*
X127433558Y-45178101D01*
X127433568Y-45178098D01*
X127692563Y-45098209D01*
X127692565Y-45098207D01*
X127692572Y-45098206D01*
X127692577Y-45098203D01*
X127692581Y-45098202D01*
X127936780Y-44980602D01*
X127936780Y-44980601D01*
X127936786Y-44980599D01*
X128160743Y-44827907D01*
X128359442Y-44643542D01*
X128528443Y-44431621D01*
X128596207Y-44314250D01*
X128663969Y-44196883D01*
X128663971Y-44196879D01*
X128762999Y-43944559D01*
X128794615Y-43806036D01*
X128828359Y-43744981D01*
X129027938Y-43545404D01*
X129090250Y-43511379D01*
X129117033Y-43508500D01*
X135055234Y-43508500D01*
X135123355Y-43528502D01*
X135130735Y-43533626D01*
X135131910Y-43534505D01*
X135153796Y-43550889D01*
X135290795Y-43601988D01*
X135290803Y-43601990D01*
X135351350Y-43608499D01*
X135351355Y-43608499D01*
X135351362Y-43608500D01*
X135351368Y-43608500D01*
X137648632Y-43608500D01*
X137648638Y-43608500D01*
X137648645Y-43608499D01*
X137648649Y-43608499D01*
X137709196Y-43601990D01*
X137709199Y-43601989D01*
X137709201Y-43601989D01*
X137846204Y-43550889D01*
X137868091Y-43534505D01*
X137963261Y-43463261D01*
X138050887Y-43346207D01*
X138050887Y-43346206D01*
X138050889Y-43346204D01*
X138101989Y-43209201D01*
X138108500Y-43148638D01*
X138108500Y-40851362D01*
X138108287Y-40849380D01*
X138101990Y-40790803D01*
X138101988Y-40790795D01*
X138050889Y-40653797D01*
X138050887Y-40653792D01*
X137963261Y-40536738D01*
X137846207Y-40449112D01*
X137846202Y-40449110D01*
X137709204Y-40398011D01*
X137709196Y-40398009D01*
X137648649Y-40391500D01*
X137648638Y-40391500D01*
X135351362Y-40391500D01*
X135351350Y-40391500D01*
X135290803Y-40398009D01*
X135290795Y-40398011D01*
X135153797Y-40449110D01*
X135153796Y-40449110D01*
X135138073Y-40460880D01*
X135130742Y-40466368D01*
X135064224Y-40491179D01*
X135055234Y-40491500D01*
X128563939Y-40491500D01*
X128563915Y-40491499D01*
X128558722Y-40491499D01*
X128321278Y-40491499D01*
X128086759Y-40528644D01*
X128086757Y-40528644D01*
X128086754Y-40528645D01*
X127860941Y-40602016D01*
X127860935Y-40602019D01*
X127649369Y-40709817D01*
X127457277Y-40849380D01*
X126700875Y-41605781D01*
X126638563Y-41639806D01*
X126630566Y-41641277D01*
X126626440Y-41641899D01*
X126367436Y-41721790D01*
X126367423Y-41721795D01*
X126123212Y-41839402D01*
X126123205Y-41839406D01*
X125899263Y-41992088D01*
X125899251Y-41992098D01*
X125700561Y-42176453D01*
X125531554Y-42388382D01*
X125396030Y-42623116D01*
X125396027Y-42623124D01*
X125297002Y-42875437D01*
X125297001Y-42875439D01*
X125236685Y-43139697D01*
X125216429Y-43410000D01*
X121263772Y-43410000D01*
X121245315Y-43163701D01*
X121184999Y-42899441D01*
X121085971Y-42647121D01*
X121085970Y-42647120D01*
X121085969Y-42647116D01*
X120950445Y-42412382D01*
X120931303Y-42388379D01*
X120781442Y-42200458D01*
X120781441Y-42200457D01*
X120781438Y-42200453D01*
X120582748Y-42016098D01*
X120582742Y-42016092D01*
X120358787Y-41863402D01*
X120358786Y-41863401D01*
X120358783Y-41863400D01*
X120358781Y-41863398D01*
X120358780Y-41863397D01*
X120114581Y-41745797D01*
X120114563Y-41745790D01*
X119855568Y-41665901D01*
X119855560Y-41665899D01*
X119855558Y-41665899D01*
X119587528Y-41625500D01*
X119316472Y-41625500D01*
X119048442Y-41665899D01*
X119048440Y-41665899D01*
X119048431Y-41665901D01*
X118789436Y-41745790D01*
X118789423Y-41745795D01*
X118545212Y-41863402D01*
X118545205Y-41863406D01*
X118321263Y-42016088D01*
X118321251Y-42016098D01*
X118122561Y-42200453D01*
X117953554Y-42412382D01*
X117818030Y-42647116D01*
X117818027Y-42647124D01*
X117719002Y-42899437D01*
X117719001Y-42899439D01*
X117658685Y-43163697D01*
X117638429Y-43434000D01*
X117355903Y-43434000D01*
X117351453Y-32500006D01*
X125486540Y-32500006D01*
X125506357Y-32815007D01*
X125506359Y-32815024D01*
X125565504Y-33125067D01*
X125565507Y-33125080D01*
X125663039Y-33425254D01*
X125663044Y-33425266D01*
X125797438Y-33710869D01*
X125797440Y-33710872D01*
X125797443Y-33710878D01*
X125966562Y-33977368D01*
X126167763Y-34220578D01*
X126397860Y-34436654D01*
X126635355Y-34609204D01*
X126653221Y-34622184D01*
X126929821Y-34774247D01*
X127223298Y-34890443D01*
X127529025Y-34968940D01*
X127529033Y-34968941D01*
X127529032Y-34968941D01*
X127693129Y-34989670D01*
X127842179Y-35008500D01*
X127842183Y-35008500D01*
X128157817Y-35008500D01*
X128157821Y-35008500D01*
X128470975Y-34968940D01*
X128776702Y-34890443D01*
X129070179Y-34774247D01*
X129346779Y-34622184D01*
X129602140Y-34436654D01*
X129832233Y-34220582D01*
X129969890Y-34054184D01*
X130028724Y-34014446D01*
X130066975Y-34008500D01*
X130191500Y-34008500D01*
X130259621Y-34028502D01*
X130306114Y-34082158D01*
X130317500Y-34134500D01*
X130317500Y-34548649D01*
X130324009Y-34609196D01*
X130324011Y-34609204D01*
X130375110Y-34746202D01*
X130375112Y-34746207D01*
X130462738Y-34863261D01*
X130579792Y-34950887D01*
X130579794Y-34950888D01*
X130579796Y-34950889D01*
X130628192Y-34968940D01*
X130716795Y-35001988D01*
X130716803Y-35001990D01*
X130777350Y-35008499D01*
X130777355Y-35008499D01*
X130777362Y-35008500D01*
X130777368Y-35008500D01*
X134874632Y-35008500D01*
X134874638Y-35008500D01*
X134874645Y-35008499D01*
X134874649Y-35008499D01*
X134935196Y-35001990D01*
X134935199Y-35001989D01*
X134935201Y-35001989D01*
X135072204Y-34950889D01*
X135189261Y-34863261D01*
X135276889Y-34746204D01*
X135327989Y-34609201D01*
X135334500Y-34548638D01*
X135334500Y-34134500D01*
X135354502Y-34066379D01*
X135408158Y-34019886D01*
X135460500Y-34008500D01*
X136974969Y-34008500D01*
X137043090Y-34028502D01*
X137064064Y-34045405D01*
X138804595Y-35785936D01*
X138838621Y-35848248D01*
X138841500Y-35875031D01*
X138841500Y-41413564D01*
X138831909Y-41461781D01*
X138815495Y-41501407D01*
X138815495Y-41501408D01*
X138811060Y-41519881D01*
X138756391Y-41747597D01*
X138736526Y-42000000D01*
X138750413Y-42176453D01*
X138756391Y-42252402D01*
X138815494Y-42498589D01*
X138815495Y-42498591D01*
X138912384Y-42732502D01*
X139044672Y-42948376D01*
X139209102Y-43140898D01*
X139401624Y-43305328D01*
X139617498Y-43437616D01*
X139851409Y-43534505D01*
X140097597Y-43593609D01*
X140350000Y-43613474D01*
X140602403Y-43593609D01*
X140848591Y-43534505D01*
X141082502Y-43437616D01*
X141298376Y-43305328D01*
X141490898Y-43140898D01*
X141655328Y-42948376D01*
X141787616Y-42732502D01*
X141884505Y-42498591D01*
X141943609Y-42252403D01*
X141963474Y-42000000D01*
X141943609Y-41747597D01*
X141884505Y-41501409D01*
X141868091Y-41461781D01*
X141858500Y-41413564D01*
X141858500Y-35079281D01*
X141858500Y-35079278D01*
X141821356Y-34844759D01*
X141747982Y-34618937D01*
X141640185Y-34407373D01*
X141500620Y-34215278D01*
X141332722Y-34047380D01*
X141332721Y-34047379D01*
X139785347Y-32500006D01*
X141986540Y-32500006D01*
X142006357Y-32815007D01*
X142006359Y-32815024D01*
X142065504Y-33125067D01*
X142065507Y-33125080D01*
X142163039Y-33425254D01*
X142163044Y-33425266D01*
X142297438Y-33710869D01*
X142297440Y-33710872D01*
X142297443Y-33710878D01*
X142466564Y-33977371D01*
X142466567Y-33977375D01*
X142553252Y-34082158D01*
X142662584Y-34214317D01*
X142690595Y-34279554D01*
X142691500Y-34294632D01*
X142691500Y-41413564D01*
X142681909Y-41461781D01*
X142665495Y-41501407D01*
X142665495Y-41501408D01*
X142661060Y-41519881D01*
X142606391Y-41747597D01*
X142586526Y-42000000D01*
X142600413Y-42176453D01*
X142606391Y-42252402D01*
X142665494Y-42498589D01*
X142665495Y-42498591D01*
X142762384Y-42732502D01*
X142894672Y-42948376D01*
X143059102Y-43140898D01*
X143251624Y-43305328D01*
X143467498Y-43437616D01*
X143701409Y-43534505D01*
X143947597Y-43593609D01*
X144200000Y-43613474D01*
X144452403Y-43593609D01*
X144698591Y-43534505D01*
X144932502Y-43437616D01*
X145148376Y-43305328D01*
X145340898Y-43140898D01*
X145505328Y-42948376D01*
X145637616Y-42732502D01*
X145734505Y-42498591D01*
X145793609Y-42252403D01*
X145813474Y-42000000D01*
X146437028Y-42000000D01*
X146456886Y-42252323D01*
X146515971Y-42498434D01*
X146612830Y-42732272D01*
X146744177Y-42946611D01*
X146744178Y-42946611D01*
X147484192Y-42206597D01*
X147490889Y-42231591D01*
X147569881Y-42368408D01*
X147681592Y-42480119D01*
X147818409Y-42559111D01*
X147843400Y-42565807D01*
X147103387Y-43305820D01*
X147103387Y-43305822D01*
X147317727Y-43437169D01*
X147551565Y-43534028D01*
X147797676Y-43593113D01*
X148050000Y-43612971D01*
X148302323Y-43593113D01*
X148548434Y-43534028D01*
X148782277Y-43437167D01*
X148996611Y-43305822D01*
X148996611Y-43305820D01*
X148256598Y-42565807D01*
X148281591Y-42559111D01*
X148418408Y-42480119D01*
X148530119Y-42368408D01*
X148609111Y-42231591D01*
X148615807Y-42206598D01*
X149355820Y-42946611D01*
X149355822Y-42946611D01*
X149487167Y-42732277D01*
X149584028Y-42498434D01*
X149643113Y-42252323D01*
X149662971Y-42000000D01*
X149643113Y-41747676D01*
X149584028Y-41501565D01*
X149487169Y-41267727D01*
X149355822Y-41053387D01*
X149355820Y-41053387D01*
X148615807Y-41793400D01*
X148609111Y-41768409D01*
X148530119Y-41631592D01*
X148418408Y-41519881D01*
X148281591Y-41440889D01*
X148256598Y-41434192D01*
X148996611Y-40694178D01*
X148996611Y-40694177D01*
X148782272Y-40562830D01*
X148548434Y-40465971D01*
X148302323Y-40406886D01*
X148050000Y-40387028D01*
X147797676Y-40406886D01*
X147551565Y-40465971D01*
X147317727Y-40562830D01*
X147103387Y-40694176D01*
X147103387Y-40694178D01*
X147843401Y-41434192D01*
X147818409Y-41440889D01*
X147681592Y-41519881D01*
X147569881Y-41631592D01*
X147490889Y-41768409D01*
X147484192Y-41793401D01*
X146744178Y-41053387D01*
X146744176Y-41053387D01*
X146612830Y-41267727D01*
X146515971Y-41501565D01*
X146456886Y-41747676D01*
X146437028Y-42000000D01*
X145813474Y-42000000D01*
X145793609Y-41747597D01*
X145734505Y-41501409D01*
X145718091Y-41461781D01*
X145708500Y-41413564D01*
X145708500Y-34772719D01*
X145728502Y-34704598D01*
X145773800Y-34662304D01*
X145846779Y-34622184D01*
X146102140Y-34436654D01*
X146332233Y-34220582D01*
X146469890Y-34054184D01*
X146528724Y-34014446D01*
X146566975Y-34008500D01*
X146691500Y-34008500D01*
X146759621Y-34028502D01*
X146806114Y-34082158D01*
X146817500Y-34134500D01*
X146817500Y-34548649D01*
X146824009Y-34609196D01*
X146824011Y-34609204D01*
X146875110Y-34746202D01*
X146875112Y-34746207D01*
X146962738Y-34863261D01*
X147079792Y-34950887D01*
X147079794Y-34950888D01*
X147079796Y-34950889D01*
X147128192Y-34968940D01*
X147216795Y-35001988D01*
X147216803Y-35001990D01*
X147277350Y-35008499D01*
X147277355Y-35008499D01*
X147277362Y-35008500D01*
X147277368Y-35008500D01*
X151374632Y-35008500D01*
X151374638Y-35008500D01*
X151374645Y-35008499D01*
X151374649Y-35008499D01*
X151435196Y-35001990D01*
X151435199Y-35001989D01*
X151435201Y-35001989D01*
X151572204Y-34950889D01*
X151689261Y-34863261D01*
X151776889Y-34746204D01*
X151827989Y-34609201D01*
X151834500Y-34548638D01*
X151834500Y-30451362D01*
X151834499Y-30451350D01*
X151827990Y-30390803D01*
X151827988Y-30390795D01*
X151776889Y-30253797D01*
X151776887Y-30253792D01*
X151689261Y-30136738D01*
X151572207Y-30049112D01*
X151572202Y-30049110D01*
X151435204Y-29998011D01*
X151435196Y-29998009D01*
X151374649Y-29991500D01*
X151374638Y-29991500D01*
X147277362Y-29991500D01*
X147277350Y-29991500D01*
X147216803Y-29998009D01*
X147216795Y-29998011D01*
X147079797Y-30049110D01*
X147079792Y-30049112D01*
X146962738Y-30136738D01*
X146875112Y-30253792D01*
X146875110Y-30253797D01*
X146824011Y-30390795D01*
X146824009Y-30390803D01*
X146817500Y-30451350D01*
X146817500Y-30865500D01*
X146797498Y-30933621D01*
X146743842Y-30980114D01*
X146691500Y-30991500D01*
X146566975Y-30991500D01*
X146498854Y-30971498D01*
X146469890Y-30945816D01*
X146332236Y-30779421D01*
X146102139Y-30563345D01*
X145846781Y-30377817D01*
X145804385Y-30354509D01*
X145570179Y-30225753D01*
X145276702Y-30109557D01*
X144970975Y-30031060D01*
X144970970Y-30031059D01*
X144970965Y-30031058D01*
X144970967Y-30031058D01*
X144657835Y-29991501D01*
X144657824Y-29991500D01*
X144657821Y-29991500D01*
X144342179Y-29991500D01*
X144342176Y-29991500D01*
X144342164Y-29991501D01*
X144029033Y-30031058D01*
X143723301Y-30109556D01*
X143723299Y-30109556D01*
X143723298Y-30109557D01*
X143429821Y-30225753D01*
X143153218Y-30377817D01*
X142897861Y-30563345D01*
X142897860Y-30563345D01*
X142667763Y-30779421D01*
X142466562Y-31022631D01*
X142297443Y-31289121D01*
X142297436Y-31289135D01*
X142163044Y-31574732D01*
X142163039Y-31574745D01*
X142065507Y-31874919D01*
X142065504Y-31874932D01*
X142006359Y-32184975D01*
X142006357Y-32184992D01*
X141986540Y-32499993D01*
X141986540Y-32500006D01*
X139785347Y-32500006D01*
X138807029Y-31521688D01*
X138807010Y-31521667D01*
X138634727Y-31349384D01*
X138634724Y-31349382D01*
X138634722Y-31349380D01*
X138442627Y-31209815D01*
X138231063Y-31102018D01*
X138231060Y-31102017D01*
X138231058Y-31102016D01*
X138005245Y-31028645D01*
X138005243Y-31028644D01*
X138005241Y-31028644D01*
X137770722Y-30991499D01*
X137533278Y-30991499D01*
X137528085Y-30991499D01*
X137528061Y-30991500D01*
X135460500Y-30991500D01*
X135392379Y-30971498D01*
X135345886Y-30917842D01*
X135334500Y-30865500D01*
X135334500Y-30451367D01*
X135334499Y-30451350D01*
X135327990Y-30390803D01*
X135327988Y-30390795D01*
X135276889Y-30253797D01*
X135276887Y-30253792D01*
X135189261Y-30136738D01*
X135072207Y-30049112D01*
X135072202Y-30049110D01*
X134935204Y-29998011D01*
X134935196Y-29998009D01*
X134874649Y-29991500D01*
X134874638Y-29991500D01*
X130777362Y-29991500D01*
X130777350Y-29991500D01*
X130716803Y-29998009D01*
X130716795Y-29998011D01*
X130579797Y-30049110D01*
X130579792Y-30049112D01*
X130462738Y-30136738D01*
X130375112Y-30253792D01*
X130375110Y-30253797D01*
X130324011Y-30390795D01*
X130324009Y-30390803D01*
X130317500Y-30451350D01*
X130317500Y-30865500D01*
X130297498Y-30933621D01*
X130243842Y-30980114D01*
X130191500Y-30991500D01*
X130066975Y-30991500D01*
X129998854Y-30971498D01*
X129969890Y-30945816D01*
X129832236Y-30779421D01*
X129602139Y-30563345D01*
X129346781Y-30377817D01*
X129304385Y-30354509D01*
X129070179Y-30225753D01*
X128776702Y-30109557D01*
X128470975Y-30031060D01*
X128470970Y-30031059D01*
X128470965Y-30031058D01*
X128470967Y-30031058D01*
X128157835Y-29991501D01*
X128157824Y-29991500D01*
X128157821Y-29991500D01*
X127842179Y-29991500D01*
X127842176Y-29991500D01*
X127842164Y-29991501D01*
X127529033Y-30031058D01*
X127223301Y-30109556D01*
X127223299Y-30109556D01*
X127223298Y-30109557D01*
X126929821Y-30225753D01*
X126653218Y-30377817D01*
X126397861Y-30563345D01*
X126397860Y-30563345D01*
X126167763Y-30779421D01*
X125966562Y-31022631D01*
X125797443Y-31289121D01*
X125797436Y-31289135D01*
X125663044Y-31574732D01*
X125663039Y-31574745D01*
X125565507Y-31874919D01*
X125565504Y-31874932D01*
X125506359Y-32184975D01*
X125506357Y-32184992D01*
X125486540Y-32499993D01*
X125486540Y-32500006D01*
X117351453Y-32500006D01*
X117350051Y-29056020D01*
X117370025Y-28987892D01*
X117423662Y-28941378D01*
X117475992Y-28929970D01*
X161864010Y-28910056D01*
X161932139Y-28930028D01*
G37*
%TD.AperFunction*%
%TD*%
M02*
